<?xml version="1.0" encoding="UTF-8"?>
<svg id="Layer_2" data-name="Layer 2" xmlns="http://www.w3.org/2000/svg" viewBox="0 0 108.38 101.7">
  <defs>
    <style>
      .cls-1 {
        fill: #fcdbdb;
      }

      .cls-2 {
        fill: #fff;
      }

      .cls-3 {
        fill: #fcc742;
      }

      .cls-4 {
        fill: #c4daa2;
      }

      .cls-5 {
        fill: #d9e8bf;
      }

      .cls-6 {
        fill: #515051;
      }
    </style>
  </defs>
  <g id="Layer_1-2" data-name="Layer 1">
    <g>
      <path class="cls-1" d="M66.83,54.84l-.77-2.9,1.93-.51,.77,2.9-1.93,.51Zm-1.54-5.8l-.77-2.9,1.93-.51,.77,2.9-1.93,.51Zm-1.54-5.8l-.77-2.9,1.93-.51,.77,2.9-1.93,.51Zm-1.54-5.8l-.77-2.9,1.93-.51,.77,2.9-1.93,.51Zm-1.54-5.8l-.77-2.9,1.93-.51,.77,2.9-1.93,.51Zm-1.54-5.8l-.77-2.9,1.93-.51,.77,2.9-1.93,.51Zm-1.54-5.8l-.77-2.9,1.93-.51,.77,2.9-1.93,.51Zm-1.54-5.8l-.77-2.9,1.93-.51,.77,2.9-1.93,.51Z"/>
      <rect class="cls-3" x="85.23" y="27.89" width="2.43" height="49.4" transform="translate(-5.66 10.69) rotate(-6.85)"/>
      <polygon class="cls-3" points="94.68 81.69 92.34 81.04 100.89 50.03 77.76 25.18 61.8 13.84 63.21 11.86 79.45 23.43 103.59 49.37 94.68 81.69"/>
      <rect class="cls-4" x="5.39" y="76.59" width="28.78" height="2.43" transform="translate(-60.29 83.66) rotate(-79.92)"/>
      <path class="cls-1" d="M66.29,94.3l-2-.06,.04-1.15,2,.06-.04,1.15Zm.12-4.15l-2-.06,.09-3,2,.06-.09,3Zm.18-6l-2-.06,.09-3,2,.06-.09,3Zm.18-6l-2-.06,.09-3,2,.06-.09,3Zm.18-6l-2-.06,.09-3,2,.06-.09,3Zm.18-6l-2-.06,.09-3,2,.06-.09,3Zm.18-6l-2-.06,.09-3,2,.06-.09,3Z"/>
      <rect class="cls-3" x="58.93" y="39.78" width="31.39" height="2.43" transform="translate(5.82 91.15) rotate(-64.87)"/>
      <polygon class="cls-5" points="23.19 64.47 21.41 62.81 41.39 41.27 7.3 37.44 7.57 35.02 46.45 39.4 23.19 64.47"/>
      <polygon class="cls-5" points="21.23 64.22 5.81 35.78 53.02 7.61 54.26 9.7 9.06 36.68 23.37 63.06 21.23 64.22"/>
      <path class="cls-1" d="M44.85,40.7l-1.86-.73,1.09-2.79,1.86,.73-1.09,2.79Zm2.18-5.59l-1.86-.73,1.09-2.79,1.86,.73-1.09,2.79Zm2.18-5.59l-1.86-.73,1.09-2.8,1.86,.73-1.09,2.8Zm2.18-5.59l-1.86-.73,1.09-2.8,1.86,.73-1.09,2.8Zm2.18-5.59l-1.86-.73,1.09-2.79,1.86,.73-1.09,2.79Zm2.18-5.59l-1.86-.73,1.09-2.79,1.86,.73-1.09,2.79Z"/>
      <polygon class="cls-3" points="65.91 95.31 64.66 93.22 87.76 79.47 67.05 56.01 68.87 54.4 91.53 80.06 65.91 95.31"/>
      <g>
        <circle class="cls-6" cx="56.26" cy="8.65" r="7.43"/>
        <path class="cls-2" d="M56.26,17.3c-4.77,0-8.65-3.88-8.65-8.65S51.49,0,56.26,0s8.65,3.88,8.65,8.65-3.88,8.65-8.65,8.65Zm0-14.87c-3.43,0-6.22,2.79-6.22,6.22s2.79,6.22,6.22,6.22,6.22-2.79,6.22-6.22-2.79-6.22-6.22-6.22Z"/>
      </g>
      <circle class="cls-3" cx="81.28" cy="26.78" r="7.43"/>
      <circle class="cls-1" cx="67.96" cy="55.2" r="7.43"/>
      <circle class="cls-1" cx="43.92" cy="40.33" r="7.43"/>
      <circle class="cls-1" cx="43.92" cy="75.68" r="7.43"/>
      <circle class="cls-5" cx="7.43" cy="36.23" r="7.43"/>
      <circle class="cls-5" cx="22.3" cy="63.64" r="7.43"/>
      <circle class="cls-3" cx="100.94" cy="49.7" r="7.43"/>
      <circle class="cls-3" cx="90.39" cy="81.37" r="7.43"/>
      <circle class="cls-1" cx="66.41" cy="94.27" r="7.43"/>
      <circle class="cls-5" cx="17.26" cy="91.05" r="7.43"/>
      <g id="_3drcCb.tif" data-name="3drcCb.tif">
        <path class="cls-6" d="M93.66,39.71c-.3,.19-.6,.26-.92,.24-1.47-.08-2.94-.16-4.41-.26-.67-.05-1.01-.42-1-1.01,.02-.68,.32-1,1.02-1.04,1.05-.06,2.1,.08,3.14,.13,.38,.02,.5-.06,.52-.46,.04-1.05,.14-2.09,.23-3.13,.04-.42,.24-.73,.66-.87,.41-.13,.76,0,1.07,.27,.24,.21,.31,.49,.29,.8-.09,1.49-.17,2.98-.26,4.46-.02,.34-.13,.65-.34,.89Z"/>
      </g>
      <g id="_3drcCb.tif-2" data-name="3drcCb.tif">
        <path class="cls-6" d="M87.31,58.97c-.35,0-.64-.11-.9-.3-1.18-.88-2.37-1.75-3.54-2.64-.53-.41-.62-.91-.28-1.39,.38-.56,.81-.66,1.42-.31,.91,.52,1.71,1.21,2.56,1.83,.31,.22,.46,.22,.69-.1,.61-.85,1.26-1.67,1.91-2.5,.26-.33,.6-.48,1.03-.37,.42,.11,.64,.41,.75,.81,.09,.31,0,.58-.19,.83-.89,1.2-1.78,2.39-2.66,3.59-.2,.28-.46,.47-.77,.55Z"/>
      </g>
      <g id="_3drcCb.tif-3" data-name="3drcCb.tif">
        <path class="cls-6" d="M97.05,68.09c-.3-.18-.5-.42-.63-.71-.59-1.35-1.18-2.7-1.75-4.06-.26-.62-.08-1.09,.45-1.35,.61-.29,1.03-.17,1.39,.44,.53,.91,.88,1.9,1.3,2.86,.15,.35,.28,.42,.65,.25,.95-.43,1.93-.82,2.9-1.21,.39-.16,.76-.12,1.07,.2,.31,.31,.35,.68,.24,1.08-.08,.31-.29,.5-.58,.62-1.37,.59-2.73,1.19-4.1,1.78-.31,.14-.63,.18-.95,.09Z"/>
      </g>
      <g id="_3drcCb.tif-4" data-name="3drcCb.tif">
        <path class="cls-6" d="M71.06,19.01c-.27,.23-.55,.34-.87,.37-1.47,.12-2.93,.25-4.4,.36-.67,.05-1.06-.27-1.13-.86-.08-.67,.17-1.03,.86-1.17,1.03-.21,2.09-.22,3.13-.32,.38-.03,.49-.13,.45-.53-.11-1.04-.16-2.09-.22-3.14-.02-.42,.14-.76,.53-.96,.39-.19,.75-.11,1.1,.12,.27,.18,.38,.44,.4,.75,.12,1.49,.25,2.97,.37,4.46,.03,.34-.04,.66-.21,.93Z"/>
      </g>
      <path class="cls-1" d="M44.92,75.68h-2v-3h2v3Zm0-6h-2v-3h2v3Zm0-6h-2v-3h2v3Zm0-6h-2v-3h2v3Zm0-6h-2v-3h2v3Zm0-6h-2v-3h2v3Z"/>
      <path class="cls-1" d="M64.63,95.02l-2.26-1.97,1.31-1.51,2.26,1.97-1.31,1.51Zm-4.53-3.94l-2.26-1.97,1.31-1.51,2.26,1.97-1.31,1.51Zm-4.53-3.94l-2.26-1.97,1.31-1.51,2.26,1.97-1.31,1.51Zm-4.53-3.94l-2.26-1.97,1.31-1.51,2.26,1.97-1.31,1.51Zm-4.53-3.94l-2.26-1.97,1.31-1.51,2.26,1.97-1.31,1.51Z"/>
    </g>
    <g id="_3drcCb.tif-5" data-name="3drcCb.tif">
      <path class="cls-6" d="M79.73,67.79c-.27,.23-.55,.34-.87,.37-1.47,.12-2.93,.25-4.4,.36-.67,.05-1.06-.27-1.13-.86-.08-.67,.17-1.03,.86-1.17,1.03-.21,2.09-.22,3.13-.32,.38-.03,.49-.13,.45-.53-.11-1.04-.16-2.09-.22-3.14-.02-.42,.14-.76,.53-.96,.39-.19,.75-.11,1.1,.12,.27,.18,.38,.44,.4,.75,.12,1.49,.25,2.97,.37,4.46,.03,.34-.04,.66-.21,.93Z"/>
    </g>
    <g id="_3drcCb.tif-6" data-name="3drcCb.tif">
      <path class="cls-6" d="M80.1,85.53c.17,.31,.23,.61,.19,.93-.16,1.46-.32,2.93-.5,4.39-.08,.67-.47,.99-1.06,.94-.67-.05-.98-.37-.98-1.07,0-1.05,.19-2.09,.29-3.13,.04-.38-.04-.51-.44-.54-1.04-.1-2.08-.25-3.12-.39-.41-.06-.72-.28-.83-.7-.11-.42,.04-.76,.32-1.05,.22-.23,.5-.29,.81-.25,1.48,.17,2.96,.33,4.44,.5,.34,.04,.64,.16,.87,.39Z"/>
    </g>
  </g>
</svg>