<?xml version="1.0" encoding="UTF-8"?>
<svg id="Layer_2" data-name="Layer 2" xmlns="http://www.w3.org/2000/svg" viewBox="0 0 31.16 32.67">
  <defs>
    <style>
      .cls-1 {
        fill: #fff;
      }

      .cls-2 {
        fill: #c6c6c6;
      }

      .cls-3 {
        fill: #515051;
      }
    </style>
  </defs>
  <g id="Layer_1-2" data-name="Layer 1">
    <g>
      <path class="cls-1" d="M13.68,2.16c1.07-.19,2.15-.39,3.23-.36,.96,.02,1.92,.21,2.86,.4,2.83,.57,5.66,1.14,8.49,1.71,.56,.11,1.16,.24,1.56,.65,.52,.52,.59,1.33,.59,2.06,.06,6.34-1.81,12.68-5.3,17.97-1.1,1.67-2.38,3.26-4.01,4.43s-3.64,1.89-5.63,1.69c-2.22-.22-4.18-1.53-5.84-3.02-3.74-3.35-6.39-7.86-7.67-12.7C1.08,11.63-.58,5.23,3.86,3.97c3.17-.9,6.59-1.23,9.82-1.82Z"/>
      <path class="cls-3" d="M31.14,3.52c0-.37,0-.37-.46-.36-3.18,.09-6.31-.17-9.36-.94-1.9-.48-3.73-1.12-5.35-2.09-.27-.17-.42-.16-.7,0-.56,.31-1.12,.61-1.71,.86l-1.54,1.48,.12-.91c-1.69,.61-3.47,1.01-5.31,1.27-2.13,.31-4.28,.41-6.44,.33-.22,0-.3,.05-.3,.24,0,1.07,0,2.15,0,3.22h-.09c.07,1.23,.12,2.47,.22,3.7,.17,2.08,.51,4.15,1.07,6.19,.84,3.08,2.14,6.01,4.2,8.69,2.48,3.22,5.79,5.68,9.86,7.44,.2,.09,.35,.08,.55,0,4.29-1.86,7.71-4.47,10.21-7.92l-1.41-.65,1.74,.18c1.74-2.52,2.86-5.24,3.59-8.08,.68-2.63,1.04-5.3,1.11-8,.05-1.54,0-3.08,0-4.62Zm-1.94,5.64c-.06,2.36-.37,4.69-.97,7-.66,2.54-1.67,4.96-3.23,7.2-2.21,3.16-5.28,5.55-9.14,7.22-.17,.08-.31,.08-.48,0-3.56-1.54-6.46-3.69-8.63-6.52-1.8-2.33-2.94-4.9-3.68-7.59-.49-1.78-.79-3.59-.93-5.42-.09-1.08-.13-2.16-.2-3.24,.02,0,.05,0,.08,0,0-.94,0-1.87,0-2.81,0-.17,.07-.2,.26-.2,1.89,.06,3.77-.02,5.64-.29,2.64-.39,5.16-1.08,7.4-2.37,.24-.13,.38-.14,.61,0,1.42,.86,3.02,1.42,4.69,1.83,2.67,.68,5.41,.91,8.19,.83q.4-.02,.4,.31c0,1.35,.04,2.7,0,4.05Z"/>
      <path class="cls-2" d="M27.7,6.35c0-.29,0-.29-.36-.28-1.45,.04-2.89,0-4.3-.19l-1.33,1.28,.18-1.45c-.62-.1-1.23-.23-1.84-.39-1.49-.38-2.9-.87-4.17-1.63-.2-.13-.33-.13-.54,0-2,1.14-4.23,1.75-6.59,2.1-.64,.09-1.3,.17-1.94,.21l-.56,1.86-.06-1.82c-.46,.02-.91,.04-1.37,.04l.13,2.44-1.44-1.93c0,.72,0,1.42,0,2.15h-.07c.06,.96,.1,1.93,.17,2.89,.13,1.62,.4,3.23,.83,4.82,.66,2.4,1.67,4.68,3.27,6.76,.07,.09,.13,.17,.22,.26l1.78-1.93-1.17,2.67c.1,.13,.22,.25,.35,.38l.76-.76-.18,1.35c1.65,1.58,3.63,2.85,5.92,3.84,.15,.06,.28,.06,.42,0,3.44-1.49,6.17-3.62,8.14-6.42,1.39-1.98,2.28-4.12,2.86-6.36l-2.5-1.16,2.72,.28c.04-.2,.09-.4,.12-.6l-.65-.33,.74-.13c.27-1.44,.42-2.89,.46-4.33,.03-1.2,0-2.41,0-3.61Z"/>
      <g>
        <path class="cls-3" d="M7.32,9.85c.22,3.2,.22,6.4,0,9.59-.22-3.2-.22-6.4,0-9.59h0Z"/>
        <path class="cls-3" d="M12.19,9.85c.21,4.87,.22,10.23,0,15.1-.22-4.87-.21-10.23,0-15.1h0Z"/>
        <path class="cls-3" d="M17.51,5.82c.21,6.17,.22,12.96,0,19.13-.22-6.17-.21-12.96,0-19.13h0Z"/>
        <path class="cls-3" d="M23.47,9.04c.22,4.19,.22,8.39,0,12.58-.22-4.19-.22-8.39,0-12.58h0Z"/>
      </g>
      <g>
        <path class="cls-3" d="M9.36,8.85c.37-.08,.2,.27,.44,.29,.19,.02,.4,.18,.33,.43-.26,.03-.39-.09-.44-.29-.02-.11-.12-.13-.23-.14-.07-.03-.17-.17-.1-.29h0Z"/>
        <path class="cls-3" d="M9,9.81c.43,.02,.34,.43,.64,.56,.25,.12,.56,.36,.51,.68-.34-.06-.53-.28-.64-.56-.12-.3-.53-.23-.54-.66,0,0,.02-.02,.02-.02h0Z"/>
        <path class="cls-3" d="M16.71,19.38c.1-.54,.66-.61,.92-1,.26-.35,.68-.77,1.13-.75-.25,.42-.6,.68-1.01,.89-.42,.18-.53,.84-1.04,.86h0Z"/>
        <path class="cls-3" d="M22.93,11.2c.44-.04,.48,.41,.82,.51,.3,.09,.68,.3,.71,.65-.38-.03-.63-.23-.82-.51-.19-.29-.63-.19-.73-.62,0,0,.02-.03,.02-.03h0Z"/>
        <path class="cls-3" d="M22.84,14.35c.11-.45,.59-.41,.81-.73,.2-.29,.54-.63,.92-.59-.16,.38-.45,.6-.81,.73-.36,.13-.43,.62-.9,.62,0,0-.02-.03-.02-.03h0Z"/>
      </g>
    </g>
  </g>
</svg>