<?xml version="1.0" encoding="UTF-8"?>
<svg id="Layer_2" data-name="Layer 2" xmlns="http://www.w3.org/2000/svg" viewBox="0 0 106.79 100.23">
  <defs>
    <style>
      .cls-1 {
        fill: #efb6b6;
      }

      .cls-2 {
        fill: #fcdbdb;
      }

      .cls-3 {
        fill: #fff;
      }

      .cls-4 {
        fill: #fcc742;
      }

      .cls-5 {
        fill: #fcedc3;
      }

      .cls-6 {
        fill: #cccacc;
      }

      .cls-7 {
        fill: #d9e8bf;
      }

      .cls-8, .cls-9 {
        fill: #e35658;
      }

      .cls-10 {
        fill: #515051;
      }

      .cls-9 {
        opacity: .6;
      }
    </style>
  </defs>
  <g id="Layer_1-2" data-name="Layer 1">
    <g>
      <path class="cls-8" d="M43.59,41.17l-1.86-.73,1.09-2.79,1.86,.73-1.09,2.79Zm2.18-5.59l-1.86-.73,1.09-2.79,1.86,.73-1.09,2.79Zm2.18-5.59l-1.86-.73,1.09-2.8,1.86,.73-1.09,2.8Zm2.18-5.59l-1.86-.73,1.09-2.8,1.86,.73-1.09,2.8Zm2.18-5.59l-1.86-.73,1.09-2.79,1.86,.73-1.09,2.79Zm2.18-5.59l-1.86-.73,1.09-2.79,1.86,.73-1.09,2.79Z"/>
      <path class="cls-8" d="M66.2,55.06l-.5-.59,1.52-1.3,.5,.59-1.52,1.3Zm-2.46-2.86l-1.96-2.28,1.52-1.3,1.96,2.28-1.52,1.3Zm-3.91-4.55l-1.96-2.28,1.52-1.3,1.96,2.28-1.52,1.3Zm-3.91-4.55l-.92-1.07,.05-2.35,2,.04-.03,1.59,.42,.49-1.52,1.3Zm1.19-6.38l-2-.04,.06-3,2,.04-.06,3Zm.12-6l-2-.04,.06-3,2,.04-.06,3Zm.13-6l-2-.04,.06-3,2,.04-.06,3Zm.12-6l-2-.04,.06-3,2,.04-.06,3Zm.12-6l-2-.04,.06-3,2,.04-.06,3Z"/>
      <rect class="cls-8" x="44.67" y="14.68" width="15.79" height="2.43" transform="translate(18.68 59.12) rotate(-68.73)"/>
      <path class="cls-8" d="M44.27,74.59h-2v-3h2v3Zm0-6h-2v-3h2v3Zm0-6h-2v-3h2v3Zm0-6h-2v-3h2v3Zm0-6h-2v-3h2v3Zm0-6h-2v-3h2v3Z"/>
      <polygon class="cls-5" points="88.83 78.09 76.12 45.13 80.97 29.56 83.29 30.28 78.7 45.04 91.1 77.21 88.83 78.09"/>
      <rect class="cls-8" x="44.23" y="20.59" width="24.22" height="2.43" transform="translate(33.01 77.54) rotate(-88.44)"/>
      <polygon class="cls-4" points="79.91 27.27 64 25.03 58.04 9.53 60.31 8.65 65.76 22.82 80.25 24.86 79.91 27.27"/>
      <polygon class="cls-4" points="93.31 80.51 90.96 79.87 99.39 49.32 76.52 24.75 78.3 23.09 102.09 48.66 93.31 80.51"/>
      <polygon class="cls-5" points="93.31 80.51 90.96 79.87 99.39 49.32 76.52 24.75 78.3 23.09 102.09 48.66 93.31 80.51"/>
      <rect class="cls-7" x="5.31" y="75.47" width="28.35" height="2.43" transform="translate(-59.42 82.45) rotate(-79.92)"/>
      <rect class="cls-8" x="42.06" y="39.76" width="2.43" height="17.41"/>
      <path class="cls-8" d="M65.33,92.93l-2-.06,.02-.6,2,.06-.02,.6Zm.11-3.6l-2-.06,.09-3,2,.06-.09,3Zm.18-6l-2-.06,.09-3,2,.06-.09,3Zm.18-6l-2-.06,.09-3,2,.06-.09,3Zm.18-6l-2-.06,.09-3,2,.06-.09,3Zm.18-6l-2-.06,.09-3,2,.06-.09,3Zm.18-6l-2-.06,.09-3,2,.06-.09,3Z"/>
      <polygon class="cls-7" points="22.87 63.55 21.08 61.9 40.74 40.7 7.19 36.93 7.46 34.51 45.8 38.82 22.87 63.55"/>
      <polygon class="cls-7" points="20.91 63.3 5.7 35.27 52.23 7.5 53.48 9.59 8.95 36.16 23.04 62.14 20.91 63.3"/>
      <path class="cls-8" d="M63.67,93.66l-2.26-1.97,1.31-1.51,2.26,1.97-1.31,1.51Zm-4.53-3.94l-2.26-1.97,1.31-1.51,2.26,1.97-1.31,1.51Zm-4.53-3.94l-2.26-1.97,1.31-1.51,2.26,1.97-1.31,1.51Zm-4.53-3.94l-2.26-1.97,1.31-1.51,2.26,1.97-1.31,1.51Zm-4.53-3.94l-2.26-1.97,1.31-1.51,2.26,1.97-1.31,1.51Z"/>
      <polygon class="cls-5" points="64.95 93.95 63.71 91.86 86.45 78.31 66.05 55.22 67.87 53.61 90.21 78.9 64.95 93.95"/>
      <g>
        <circle class="cls-10" cx="55.44" cy="8.54" r="7.33"/>
        <path class="cls-3" d="M55.44,17.08c-4.71,0-8.54-3.83-8.54-8.54S50.73,0,55.44,0s8.54,3.83,8.54,8.54-3.83,8.54-8.54,8.54Zm0-14.65c-3.37,0-6.11,2.74-6.11,6.11s2.74,6.11,6.11,6.11,6.11-2.74,6.11-6.11-2.74-6.11-6.11-6.11Z"/>
      </g>
      <circle class="cls-2" cx="43.27" cy="39.76" r="7.33"/>
      <circle class="cls-7" cx="7.33" cy="35.72" r="7.33"/>
      <circle class="cls-7" cx="21.98" cy="62.72" r="7.33"/>
      <circle class="cls-5" cx="99.46" cy="48.99" r="7.33"/>
      <circle class="cls-5" cx="89.06" cy="80.19" r="7.33"/>
      <circle class="cls-7" cx="17.01" cy="89.73" r="7.33"/>
      <rect class="cls-8" x="56.01" y="64.25" width="18.3" height="2.43" transform="translate(-2.26 128.59) rotate(-88.25)"/>
      <polygon class="cls-8" points="67.97 52.33 64.44 37.16 78.32 26.7 79.78 28.64 67.17 38.15 70.34 51.78 67.97 52.33"/>
      <rect class="cls-4" x="70.3" y="27.42" width="2.77" height="11.66" transform="translate(55.99 -44.19) rotate(53.66)"/>
      <circle class="cls-4" cx="80.08" cy="26.41" r="7.33"/>
      <circle class="cls-2" cx="65.8" cy="52.63" r="7.33"/>
      <g>
        <path class="cls-10" d="M66.86,41.29c-.81,0-1.59-.27-2.23-.78-.75-.6-1.22-1.45-1.33-2.4-.22-1.97,1.2-3.75,3.16-3.98,1.98-.23,3.75,1.2,3.98,3.16h0c.22,1.97-1.2,3.75-3.16,3.98-.14,.02-.28,.02-.41,.02Zm.01-6.18c-.1,0-.2,0-.3,.02-1.42,.16-2.44,1.45-2.28,2.87,.08,.69,.42,1.3,.96,1.73,.54,.43,1.22,.62,1.91,.55,1.42-.16,2.44-1.45,2.28-2.87-.08-.69-.42-1.3-.96-1.73-.46-.37-1.02-.56-1.61-.56Z"/>
        <rect class="cls-10" x="60.49" y="42.19" width="5.47" height="1" transform="translate(-7.77 70.62) rotate(-55.5)"/>
        <path class="cls-10" d="M61.32,45.83c-.11,0-.22-.04-.31-.11-.13-.11-.21-.27-.19-.44l.44-4.22c.03-.28,.27-.48,.55-.45,.27,.03,.47,.27,.45,.55l-.36,3.43,2.96-1.04c.26-.09,.55,.04,.64,.31,.09,.26-.04,.55-.31,.64l-3.7,1.3c-.05,.02-.11,.03-.17,.03Z"/>
      </g>
      <g>
        <path class="cls-10" d="M64.7,26.47c-1.98,0-3.59-1.61-3.59-3.59s1.61-3.59,3.59-3.59,3.59,1.61,3.59,3.59-1.61,3.59-3.59,3.59Zm0-6.18c-1.43,0-2.59,1.16-2.59,2.59s1.16,2.59,2.59,2.59,2.59-1.16,2.59-2.59-1.16-2.59-2.59-2.59Z"/>
        <rect class="cls-10" x="57.78" y="26.92" width="5.47" height="1" transform="translate(.1 55.06) rotate(-48.96)"/>
        <path class="cls-10" d="M58.32,30.34c-.13,0-.26-.05-.35-.14-.12-.12-.17-.3-.14-.46l.91-4.14c.06-.27,.32-.44,.6-.38,.27,.06,.44,.33,.38,.6l-.74,3.37,3.05-.7c.27-.07,.54,.11,.6,.38,.06,.27-.11,.54-.38,.6l-3.83,.88s-.08,.01-.11,.01Z"/>
      </g>
      <path class="cls-6" d="M77.2,46.48c-.18,0-.37-.02-.55-.05-1.7-.3-2.83-1.92-2.54-3.62,.3-1.7,1.93-2.84,3.62-2.54,.82,.14,1.54,.6,2.02,1.28,.48,.68,.66,1.51,.52,2.33-.14,.82-.6,1.54-1.28,2.02-.53,.37-1.15,.57-1.79,.57Zm0-5.25c-1.01,0-1.91,.73-2.09,1.76-.2,1.15,.57,2.26,1.72,2.46,.56,.1,1.12-.03,1.59-.35,.46-.33,.77-.81,.87-1.37h0c.1-.56-.03-1.12-.35-1.59-.33-.46-.81-.77-1.37-.87-.12-.02-.25-.03-.37-.03Z"/>
      <rect class="cls-6" x="70.7" y="46.04" width="4.64" height="1" transform="translate(-13.02 56.29) rotate(-38.97)"/>
      <path class="cls-6" d="M70.84,48.73c-.16,0-.31-.08-.41-.21-.1-.14-.12-.32-.05-.48l1.37-3.33c.1-.26,.4-.38,.65-.27,.26,.1,.38,.4,.27,.65l-1.07,2.6,2.54-.13c.31-.02,.51,.2,.52,.47,.01,.28-.2,.51-.47,.52l-3.33,.17s-.02,0-.03,0Z"/>
      <circle class="cls-2" cx="65.43" cy="92.9" r="7.33"/>
      <circle class="cls-2" cx="43.27" cy="74.59" r="7.33"/>
      <circle class="cls-1" cx="43.27" cy="74.59" r="5.95"/>
      <rect class="cls-3" x="45.75" y="24.86" width="4.37" height="5.03"/>
      <circle class="cls-9" cx="43.27" cy="39.86" r="5.95"/>
      <circle class="cls-8" cx="43.27" cy="39.89" r="4.54"/>
      <circle class="cls-1" cx="65.8" cy="52.63" r="5.95"/>
      <circle class="cls-8" cx="65.8" cy="52.66" r="4.54"/>
      <circle class="cls-1" cx="65.43" cy="92.92" r="5.95"/>
      <g>
        <g>
          <path class="cls-10" d="M46.78,31.04c-.05,0-.11,0-.16-.03-.26-.09-.4-.37-.31-.63l1.96-5.84c.09-.26,.37-.4,.63-.31,.26,.09,.4,.37,.31,.63l-1.96,5.84c-.07,.21-.26,.34-.47,.34Z"/>
          <path class="cls-10" d="M46.52,31.61c-.06,0-.13-.01-.19-.04-.16-.06-.27-.2-.3-.37l-.77-4.17c-.05-.27,.13-.53,.4-.58,.26-.05,.53,.13,.58,.4l.63,3.39,2.54-1.83c.22-.16,.54-.11,.7,.11,.16,.22,.11,.54-.11,.7l-3.18,2.3c-.09,.06-.19,.09-.29,.09Z"/>
        </g>
        <path class="cls-10" d="M49.86,25.36c-.54,0-1.08-.12-1.6-.38-.86-.43-1.5-1.16-1.8-2.07-.3-.91-.24-1.88,.19-2.74,.88-1.77,3.04-2.5,4.82-1.61h0c.86,.43,1.5,1.16,1.8,2.07s.24,1.88-.19,2.74c-.63,1.26-1.9,1.99-3.22,1.99Zm.01-6.18c-.95,0-1.87,.53-2.33,1.44-.31,.62-.36,1.32-.14,1.98,.22,.66,.68,1.19,1.3,1.5,1.28,.64,2.84,.12,3.48-1.16,.64-1.28,.12-2.84-1.16-3.48h0c-.37-.18-.76-.27-1.15-.27Z"/>
      </g>
      <g>
        <rect class="cls-10" x="46.01" y="52.64" width="1" height="6.16" transform="translate(-22.24 32.45) rotate(-31.45)"/>
        <polygon class="cls-10" points="48.83 59.75 44.45 57.27 44.94 56.4 47.95 58.1 48.17 54.97 49.17 55.04 48.83 59.75"/>
      </g>
      <path class="cls-10" d="M43.38,53.94c-1.39,0-2.71-.81-3.3-2.16-.79-1.82,.04-3.94,1.86-4.73h0c1.81-.79,3.94,.04,4.73,1.86,.38,.88,.4,1.86,.05,2.75-.35,.89-1.03,1.6-1.91,1.98-.46,.2-.95,.3-1.43,.3Zm-1.04-5.97c-1.31,.57-1.91,2.1-1.34,3.41,.28,.63,.78,1.12,1.43,1.38,.64,.25,1.35,.24,1.98-.04,.63-.28,1.12-.78,1.38-1.43,.25-.64,.24-1.35-.04-1.98-.57-1.31-2.1-1.91-3.41-1.34h0Z"/>
      <g>
        <rect class="cls-10" x="56.18" y="68.94" width="6.16" height="1" transform="translate(-21.63 27.12) rotate(-21.91)"/>
        <polygon class="cls-10" points="59.49 72.18 54.91 71.06 58.08 67.15 58.86 67.78 56.68 70.46 59.73 71.2 59.49 72.18"/>
      </g>
      <path class="cls-10" d="M65.07,70.83c-.64,0-1.27-.17-1.84-.51-.82-.49-1.4-1.28-1.64-2.21-.48-1.92,.69-3.88,2.61-4.36,.93-.23,1.9-.09,2.72,.41,.82,.49,1.4,1.28,1.64,2.21h0c.23,.93,.09,1.9-.4,2.72-.49,.82-1.28,1.4-2.21,1.64-.29,.07-.59,.11-.88,.11Zm.01-6.19c-.21,0-.42,.03-.63,.08-1.39,.35-2.23,1.76-1.89,3.14,.17,.67,.59,1.24,1.18,1.59,.59,.36,1.29,.46,1.96,.29,.67-.17,1.24-.59,1.59-1.18,.36-.59,.46-1.29,.29-1.96h0c-.17-.67-.59-1.24-1.18-1.59-.41-.25-.87-.37-1.33-.37Z"/>
    </g>
  </g>
</svg>