<?xml version="1.0" encoding="UTF-8"?>
<svg id="Layer_2" data-name="Layer 2" xmlns="http://www.w3.org/2000/svg" viewBox="0 0 111.3 106.3">
  <defs>
    <style>
      .cls-1 {
        fill: none;
      }

      .cls-2 {
        fill: #fcdbdb;
      }

      .cls-3 {
        fill: #fff;
      }

      .cls-4 {
        fill: #fcc742;
      }

      .cls-5 {
        fill: #fcedc3;
      }

      .cls-6 {
        fill: #bce1f6;
      }

      .cls-7 {
        fill: #d9e8bf;
      }

      .cls-8 {
        fill: #e35658;
      }

      .cls-9 {
        fill: #a1d6f6;
      }

      .cls-10 {
        fill: #6c97b2;
      }

      .cls-11 {
        fill: #567e94;
      }

      .cls-12 {
        fill: #515051;
      }
    </style>
  </defs>
  <g id="Layer_1-2" data-name="Layer 1">
    <path class="cls-8" d="M69.03,59.19l-1.85-2.15,1.52-1.3,1.85,2.15-1.52,1.3Zm-3.8-4.43l-1.96-2.28,1.52-1.3,1.96,2.28-1.52,1.3Zm-3.91-4.55l-1.96-2.28,1.52-1.3,1.96,2.28-1.52,1.3Zm-1.93-5.26l-2-.04,.06-3,2,.04-.06,3Zm.12-6l-2-.04,.06-3,2,.04-.06,3Zm.12-6l-2-.04,.06-3,2,.04-.06,3Zm.12-6l-2-.04,.06-3,2,.04-.06,3Zm.12-6l-2-.04,.06-3,2,.04-.06,3Zm.12-6l-2-.04,.06-3,2,.04-.06,3Z"/>
    <path class="cls-8" d="M46.1,79.57h-2v-3h2v3Zm0-6h-2v-3h2v3Zm0-6h-2v-3h2v3Zm0-6h-2v-3h2v3Zm0-6h-2v-3h2v3Zm0-6h-2v-3h2v3Zm0-6h-2v-.3h2v.3Z"/>
    <polygon class="cls-5" points="92.63 83.2 79.39 48.87 84.44 32.66 86.76 33.38 81.97 48.78 94.9 82.33 92.63 83.2"/>
    <polygon class="cls-4" points="83.3 30.2 66.74 27.87 60.54 11.75 62.81 10.87 68.5 25.66 83.64 27.79 83.3 30.2"/>
    <polygon class="cls-4" points="97.2 85.74 94.86 85.09 103.64 53.23 79.79 27.59 81.57 25.94 106.35 52.56 97.2 85.74"/>
    <polygon class="cls-5" points="97.2 85.74 94.86 85.09 103.64 53.23 79.79 27.59 81.57 25.94 106.35 52.56 97.2 85.74"/>
    <rect class="cls-7" x="5.54" y="80.54" width="29.55" height="2.43" transform="translate(-63.73 87.44) rotate(-79.92)"/>
    <path class="cls-8" d="M68.05,98.69l-2-.06,.06-2.15,2,.06-.06,2.15Zm.16-5.15l-2-.06,.09-3,2,.06-.09,3Zm.18-6l-2-.06,.09-3,2,.06-.09,3Zm.18-6l-2-.06,.09-3,2,.06-.09,3Zm.18-6l-2-.06,.09-3,2,.06-.09,3Zm.18-6l-2-.06,.09-3,2,.06-.09,3Zm.18-6l-2-.06,.09-3,2,.06-.09,3Z"/>
    <polygon class="cls-7" points="23.8 68.04 22.01 66.38 42.57 44.21 7.5 40.27 7.77 37.85 47.63 42.33 23.8 68.04"/>
    <polygon class="cls-7" points="21.83 67.79 6.01 38.61 54.47 9.69 55.71 11.78 9.26 39.51 23.97 66.63 21.83 67.79"/>
    <path class="cls-8" d="M66.39,99.42l-2.26-1.97,1.31-1.51,2.26,1.97-1.31,1.51Zm-4.53-3.94l-2.26-1.97,1.31-1.51,2.26,1.97-1.31,1.51Zm-4.53-3.94l-2.26-1.97,1.31-1.51,2.26,1.97-1.31,1.51Zm-4.53-3.94l-2.26-1.97,1.31-1.51,2.26,1.97-1.31,1.51Zm-4.53-3.94l-2.26-1.97,1.31-1.51,2.26,1.97-1.31,1.51Z"/>
    <polygon class="cls-5" points="67.67 99.71 66.42 97.62 90.18 83.47 68.88 59.35 70.7 57.74 93.94 84.06 67.67 99.71"/>
    <circle class="cls-7" cx="7.63" cy="39.06" r="7.63"/>
    <circle class="cls-7" cx="22.9" cy="67.21" r="7.63"/>
    <circle class="cls-5" cx="103.67" cy="52.89" r="7.63"/>
    <circle class="cls-5" cx="92.83" cy="85.41" r="7.63"/>
    <circle class="cls-7" cx="17.72" cy="95.36" r="7.63"/>
    <rect class="cls-4" x="72.35" y="30.69" width="2.89" height="16.57" transform="translate(61.46 -43.57) rotate(53.66)"/>
    <circle class="cls-4" cx="83.47" cy="29.36" r="7.63"/>
    <circle class="cls-2" cx="68.58" cy="56.69" r="7.63"/>
    <g>
      <path class="cls-12" d="M67.43,29.4c-2.05,0-3.72-1.67-3.72-3.72s1.67-3.72,3.72-3.72,3.72,1.67,3.72,3.72-1.67,3.72-3.72,3.72Zm0-6.45c-1.5,0-2.72,1.22-2.72,2.72s1.22,2.72,2.72,2.72,2.72-1.22,2.72-2.72-1.22-2.72-2.72-2.72Z"/>
      <rect class="cls-12" x="60.22" y="29.92" width="5.7" height="1" transform="translate(-1.28 58.01) rotate(-48.96)"/>
      <path class="cls-12" d="M60.79,33.43c-.13,0-.26-.05-.35-.14-.12-.12-.17-.3-.14-.46l.95-4.32c.06-.27,.33-.44,.6-.38,.27,.06,.44,.33,.38,.6l-.78,3.54,3.22-.74c.28-.06,.54,.11,.6,.38,.06,.27-.11,.54-.38,.6l-3.99,.92s-.08,.01-.11,.01Z"/>
    </g>
    <circle class="cls-2" cx="68.2" cy="98.66" r="7.63"/>
    <circle class="cls-2" cx="45.1" cy="79.57" r="7.63"/>
    <rect class="cls-3" x="47.68" y="27.74" width="4.55" height="5.24"/>
    <g>
      <rect class="cls-12" x="47.97" y="56.7" width="1" height="6.42" transform="translate(-24.14 34.09) rotate(-31.45)"/>
      <polygon class="cls-12" points="50.87 64.07 46.34 61.5 46.83 60.63 49.99 62.42 50.23 59.13 51.23 59.2 50.87 64.07"/>
    </g>
    <path class="cls-12" d="M45.21,58.04c-.46,0-.92-.09-1.36-.26-.93-.36-1.65-1.07-2.05-1.98-.82-1.88,.04-4.08,1.93-4.9,.91-.4,1.92-.42,2.85-.05s1.65,1.07,2.05,1.98c.82,1.88-.04,4.08-1.93,4.9-.48,.21-.98,.31-1.49,.31Zm0-6.45c-.37,0-.74,.08-1.09,.23-1.38,.6-2.01,2.21-1.41,3.58,.29,.67,.82,1.18,1.5,1.45,.68,.27,1.42,.25,2.08-.04,1.38-.6,2.01-2.21,1.41-3.58-.29-.67-.82-1.18-1.5-1.45-.32-.13-.66-.19-1-.19Z"/>
    <g>
      <polygon class="cls-12" points="58.97 75.87 58.6 74.94 64.56 72.54 64.93 73.46 58.97 75.87"/>
      <polygon class="cls-12" points="62.01 77.04 57.27 75.89 60.55 71.84 61.33 72.47 59.04 75.29 62.25 76.07 62.01 77.04"/>
    </g>
    <path class="cls-12" d="M67.82,75.63c-.67,0-1.32-.18-1.91-.53-.85-.51-1.46-1.32-1.7-2.29-.24-.96-.09-1.96,.42-2.82,.51-.85,1.32-1.46,2.29-1.7,.97-.24,1.97-.09,2.82,.42,.85,.51,1.46,1.32,1.7,2.29s.09,1.96-.42,2.82c-.51,.85-1.32,1.46-2.29,1.7-.3,.08-.61,.11-.91,.11Zm.01-6.45c-.22,0-.45,.03-.67,.08-.71,.18-1.3,.62-1.67,1.24s-.48,1.36-.31,2.06c.18,.71,.62,1.3,1.24,1.67,.63,.38,1.36,.48,2.06,.31,.71-.18,1.3-.62,1.67-1.24s.48-1.36,.31-2.06h0c-.18-.71-.62-1.3-1.24-1.67-.43-.26-.91-.39-1.39-.39Z"/>
    <path class="cls-8" d="M45.42,43.5l-1.86-.73,1.09-2.79,1.86,.73-1.09,2.79Zm2.18-5.59l-1.86-.73,1.09-2.79,1.86,.73-1.09,2.79Zm2.18-5.59l-1.86-.73,1.09-2.8,1.86,.73-1.09,2.8Zm2.18-5.59l-1.86-.73,1.09-2.79,1.86,.73-1.09,2.79Zm2.18-5.59l-1.86-.73,1.09-2.79,1.86,.73-1.09,2.79Zm2.18-5.59l-1.86-.73,1.09-2.8,1.86,.73-1.09,2.8Z"/>
    <g>
      <g>
        <path class="cls-12" d="M49.22,31.23c-.05,0-.11,0-.16-.03-.26-.09-.4-.37-.31-.63l2.04-6.09c.09-.26,.37-.41,.63-.31,.26,.09,.4,.37,.31,.63l-2.04,6.09c-.07,.21-.26,.34-.47,.34Z"/>
        <path class="cls-12" d="M48.95,31.83c-.06,0-.13-.01-.19-.04-.16-.06-.27-.2-.3-.37l-.8-4.35c-.05-.27,.13-.53,.4-.58,.27-.05,.53,.13,.58,.4l.66,3.57,2.68-1.93c.22-.16,.54-.11,.7,.11,.16,.22,.11,.54-.11,.7l-3.32,2.39c-.09,.06-.19,.09-.29,.09Z"/>
      </g>
      <path class="cls-12" d="M52.44,25.32c-.57,0-1.13-.13-1.66-.39-.89-.44-1.55-1.21-1.87-2.15-.32-.94-.25-1.95,.2-2.84,.44-.89,1.21-1.55,2.15-1.87,.94-.32,1.95-.25,2.84,.2,.89,.44,1.55,1.21,1.87,2.15,.32,.94,.25,1.95-.2,2.84-.44,.89-1.21,1.55-2.15,1.87-.39,.13-.79,.19-1.19,.19Zm0-6.45c-.29,0-.58,.05-.87,.14-.69,.23-1.25,.72-1.57,1.37-.32,.65-.38,1.39-.14,2.08,.23,.69,.72,1.25,1.37,1.57,.65,.32,1.39,.38,2.08,.14,.69-.23,1.25-.72,1.57-1.37,.32-.65,.38-1.39,.14-2.08s-.72-1.25-1.37-1.57c-.38-.19-.8-.29-1.21-.29Z"/>
    </g>
    <g>
      <circle class="cls-12" cx="58.16" cy="8.85" r="7.63"/>
      <path class="cls-3" d="M58.16,17.7c-4.88,0-8.85-3.97-8.85-8.85S53.28,0,58.16,0s8.85,3.97,8.85,8.85-3.97,8.85-8.85,8.85Zm0-15.27c-3.54,0-6.42,2.88-6.42,6.42s2.88,6.42,6.42,6.42,6.42-2.88,6.42-6.42-2.88-6.42-6.42-6.42Z"/>
    </g>
    <circle class="cls-2" cx="45.1" cy="42.16" r="7.63"/>
    <line class="cls-1" x1="48.96" y1="33.2" x2="48.96" y2="33.2"/>
    <g>
      <path class="cls-3" d="M45.49,32.45c.4-.15,.8-.35,1.22-.32,.3,.02,.58,.16,.86,.27,1.16,.48,2.45,.67,3.7,.55,.07,1.53-.08,3.1-.62,4.53-.54,1.44-1.49,2.74-2.79,3.56-.35,.22-.73,.41-1.15,.44-.83,.07-1.59-.47-2.17-1.07-1.04-1.07-1.78-2.41-2.17-3.85-.19-.72-.3-1.46-.31-2.2,0-.53-.12-1.33,.56-1.43,.46-.07,.94-.02,1.41-.1,.49-.08,.98-.21,1.45-.39Z"/>
      <path class="cls-10" d="M51.59,32.76c0-.12,0-.12-.14-.11-1.01,.03-2.01-.05-2.97-.3-.1-.02-.19-.05-.28-.08-.5-.14-.98-.33-1.42-.59-.09-.05-.14-.05-.22,0-.81,.47-1.73,.72-2.68,.86-.68,.1-1.36,.13-2.05,.11-.07,0-.09,.01-.09,.07,0,.34,0,.68,0,1.02h-.03c.02,.39,.03,.79,.07,1.18,.05,.66,.16,1.32,.34,1.96,.27,.98,.68,1.91,1.33,2.76,.12,.16,.25,.32,.39,.46,.73,.8,1.65,1.43,2.74,1.9,.06,.03,.11,.03,.17,0,1.41-.61,2.52-1.47,3.32-2.62,.57-.82,.94-1.69,1.17-2.61,.22-.84,.33-1.69,.35-2.54,.01-.49,0-.98,0-1.47Zm-.62,1.8c-.02,.75-.12,1.49-.31,2.22-.21,.8-.53,1.57-1.03,2.29-.7,1-1.67,1.76-2.9,2.29-.05,.02-.1,.02-.15,0-.9-.38-1.66-.9-2.28-1.54-.17-.17-.32-.35-.46-.53-.57-.74-.93-1.56-1.17-2.41-.16-.57-.25-1.14-.29-1.72-.03-.34-.04-.69-.06-1.03h.03c0-.3,0-.6,0-.9,0-.05,.02-.07,.08-.06,.6,.02,1.2,0,1.79-.09,.84-.12,1.64-.34,2.35-.75,.08-.04,.12-.04,.2,0,.42,.26,.9,.43,1.4,.56,.03,0,.06,.02,.09,.02,.85,.22,1.72,.29,2.6,.27q.13,0,.13,.1c0,.43,.01,.86,0,1.29Z"/>
      <path class="cls-6" d="M50.5,33.66q0-.09-.11-.09c-.77,.02-1.53-.04-2.27-.22-.02,0-.03,0-.05-.01-.47-.12-.92-.28-1.32-.52-.07-.04-.11-.04-.17,0h0c-.63,.36-1.34,.56-2.09,.67-.53,.08-1.06,.1-1.59,.08-.05,0-.07,.01-.07,.06v.79h-.02c.02,.31,.03,.61,.05,.92,.04,.52,.13,1.03,.27,1.53,.05,.16,.1,.33,.15,.49,.2,.58,.49,1.14,.88,1.66,.16,.2,.32,.39,.5,.57,.54,.53,1.19,.95,1.94,1.28,.05,.02,.09,.02,.14,0,1.09-.47,1.96-1.15,2.58-2.04,.45-.64,.73-1.32,.91-2.04,.17-.65,.26-1.31,.28-1.98,0-.38,0-.76,0-1.15Z"/>
      <path class="cls-9" d="M50.5,34.81c-.02,.67-.11,1.32-.28,1.98-.19,.72-.47,1.4-.91,2.04-.62,.89-1.49,1.57-2.58,2.04-.05,.02-.09,.02-.14,0-.75-.32-1.4-.75-1.94-1.28,1.47-1.07,2.5-2.93,3.06-4.62,.17-.53,.31-1.07,.4-1.62,.74,.18,1.5,.25,2.27,.22q.11,0,.11,.09c0,.38,.01,.76,0,1.15Z"/>
      <path class="cls-11" d="M51.59,34.23c-.02,.86-.14,1.7-.35,2.54-.24,.92-.6,1.8-1.17,2.61-.8,1.14-1.91,2.01-3.32,2.62-.06,.03-.11,.03-.17,0-1.09-.47-2.01-1.1-2.74-1.9,.15-.1,.31-.19,.47-.28,.62,.64,1.39,1.15,2.28,1.54,.05,.02,.1,.02,.15,0,1.23-.53,2.2-1.29,2.9-2.29,.5-.71,.82-1.48,1.03-2.29,.19-.73,.29-1.47,.31-2.22,.01-.43,0-.86,0-1.29q0-.1-.13-.1c-.88,.02-1.75-.05-2.6-.27-.03,0-.06-.02-.09-.02,.01-.18,.02-.4,.03-.61,.09,.03,.19,.05,.28,.08,.97,.25,1.96,.33,2.97,.3,.14,0,.14,0,.14,.11,0,.49,.01,.98,0,1.47Z"/>
    </g>
    <g>
      <path class="cls-3" d="M63.41,42.95c.4-.15,.8-.35,1.22-.32,.3,.02,.58,.16,.86,.27,1.16,.48,2.45,.67,3.7,.55,.07,1.53-.08,3.1-.62,4.53s-1.49,2.74-2.79,3.56c-.35,.22-.73,.41-1.15,.44-.83,.07-1.59-.47-2.17-1.07-1.04-1.07-1.78-2.41-2.17-3.85-.19-.72-.3-1.46-.31-2.2,0-.53-.12-1.33,.56-1.43,.46-.07,.94-.02,1.41-.1,.49-.08,.98-.21,1.45-.39Z"/>
      <path class="cls-10" d="M69.51,43.27c0-.12,0-.12-.14-.11-1.01,.03-2.01-.05-2.97-.3-.1-.02-.19-.05-.28-.08-.5-.14-.98-.33-1.42-.59-.09-.05-.14-.05-.22,0-.81,.47-1.73,.72-2.68,.86-.68,.1-1.36,.13-2.05,.11-.07,0-.09,.01-.09,.07,0,.34,0,.68,0,1.02h-.03c.02,.39,.03,.79,.07,1.18,.05,.66,.16,1.32,.34,1.96,.27,.98,.68,1.91,1.33,2.76,.12,.16,.25,.32,.39,.46,.73,.8,1.65,1.43,2.74,1.9,.06,.03,.11,.03,.17,0,1.41-.61,2.52-1.47,3.32-2.62,.57-.82,.94-1.69,1.17-2.61,.22-.84,.33-1.69,.35-2.54,.01-.49,0-.98,0-1.47Zm-.62,1.8c-.02,.75-.12,1.49-.31,2.22-.21,.8-.53,1.57-1.03,2.29-.7,1-1.67,1.76-2.9,2.29-.05,.02-.1,.02-.15,0-.9-.38-1.66-.9-2.28-1.54-.17-.17-.32-.35-.46-.53-.57-.74-.93-1.56-1.17-2.41-.16-.57-.25-1.14-.29-1.72-.03-.34-.04-.69-.06-1.03h.03c0-.3,0-.6,0-.9,0-.05,.02-.07,.08-.06,.6,.02,1.2,0,1.79-.09,.84-.12,1.64-.34,2.35-.75,.08-.04,.12-.04,.2,0,.42,.26,.9,.43,1.4,.56,.03,0,.06,.02,.09,.02,.85,.22,1.72,.29,2.6,.27q.13,0,.13,.1c0,.43,.01,.86,0,1.29Z"/>
      <path class="cls-6" d="M68.41,44.17q0-.09-.11-.09c-.77,.02-1.53-.04-2.27-.22-.02,0-.03,0-.05-.01-.47-.12-.92-.28-1.32-.52-.07-.04-.11-.04-.17,0h0c-.63,.36-1.34,.56-2.09,.67-.53,.08-1.06,.1-1.59,.08-.05,0-.07,.01-.07,.06v.79h-.02c.02,.31,.03,.61,.05,.92,.04,.52,.13,1.03,.27,1.53,.05,.16,.1,.33,.15,.49,.2,.58,.49,1.14,.88,1.66,.16,.2,.32,.39,.5,.57,.54,.53,1.19,.95,1.94,1.28,.05,.02,.09,.02,.14,0,1.09-.47,1.96-1.15,2.58-2.04,.45-.64,.73-1.32,.91-2.04,.17-.65,.26-1.31,.28-1.98,0-.38,0-.76,0-1.15Z"/>
      <path class="cls-9" d="M68.41,45.31c-.02,.67-.11,1.32-.28,1.98-.19,.72-.47,1.4-.91,2.04-.62,.89-1.49,1.57-2.58,2.04-.05,.02-.09,.02-.14,0-.75-.32-1.4-.75-1.94-1.28,1.47-1.07,2.5-2.93,3.06-4.62,.17-.53,.31-1.07,.4-1.62,.74,.18,1.5,.25,2.27,.22q.11,0,.11,.09c0,.38,.01,.76,0,1.15Z"/>
      <path class="cls-11" d="M69.51,44.73c-.02,.86-.14,1.7-.35,2.54-.24,.92-.6,1.8-1.17,2.61-.8,1.14-1.91,2.01-3.32,2.62-.06,.03-.11,.03-.17,0-1.09-.47-2.01-1.1-2.74-1.9,.15-.1,.31-.19,.47-.28,.62,.64,1.39,1.15,2.28,1.54,.05,.02,.1,.02,.15,0,1.23-.53,2.2-1.29,2.9-2.29,.5-.71,.82-1.48,1.03-2.29,.19-.73,.29-1.47,.31-2.22,.01-.43,0-.86,0-1.29q0-.1-.13-.1c-.88,.02-1.75-.05-2.6-.27-.03,0-.06-.02-.09-.02,.01-.18,.02-.4,.03-.61,.09,.03,.19,.05,.28,.08,.97,.25,1.96,.33,2.97,.3,.14,0,.14,0,.14,.11,0,.49,.01,.98,0,1.47Z"/>
    </g>
    <g>
      <path class="cls-3" d="M43.48,65.75c.4-.15,.8-.35,1.22-.32,.3,.02,.58,.16,.86,.27,1.16,.48,2.45,.67,3.7,.55,.07,1.53-.08,3.1-.62,4.53-.54,1.44-1.49,2.74-2.79,3.56-.35,.22-.73,.41-1.15,.44-.83,.07-1.59-.47-2.17-1.07-1.04-1.07-1.78-2.41-2.17-3.85-.19-.72-.3-1.46-.31-2.2,0-.53-.12-1.33,.56-1.43,.46-.07,.94-.02,1.41-.1,.49-.08,.98-.21,1.45-.39Z"/>
      <path class="cls-10" d="M49.58,66.06c0-.12,0-.12-.14-.11-1.01,.03-2.01-.05-2.97-.3-.1-.02-.19-.05-.28-.08-.5-.14-.98-.33-1.42-.59-.09-.05-.14-.05-.22,0-.81,.47-1.73,.72-2.68,.86-.68,.1-1.36,.13-2.05,.11-.07,0-.09,.01-.09,.07,0,.34,0,.68,0,1.02h-.03c.02,.39,.03,.79,.07,1.18,.05,.66,.16,1.32,.34,1.96,.27,.98,.68,1.91,1.33,2.76,.12,.16,.25,.32,.39,.46,.73,.8,1.65,1.43,2.74,1.9,.06,.03,.11,.03,.17,0,1.41-.61,2.52-1.47,3.32-2.62,.57-.82,.94-1.69,1.17-2.61,.22-.84,.33-1.69,.35-2.54,.01-.49,0-.98,0-1.47Zm-.62,1.8c-.02,.75-.12,1.49-.31,2.22-.21,.8-.53,1.57-1.03,2.29-.7,1-1.67,1.76-2.9,2.29-.05,.02-.1,.02-.15,0-.9-.38-1.66-.9-2.28-1.54-.17-.17-.32-.35-.46-.53-.57-.74-.93-1.56-1.17-2.41-.16-.57-.25-1.14-.29-1.72-.03-.34-.04-.69-.06-1.03h.03c0-.3,0-.6,0-.9,0-.05,.02-.07,.08-.06,.6,.02,1.2,0,1.79-.09,.84-.12,1.64-.34,2.35-.75,.08-.04,.12-.04,.2,0,.42,.26,.9,.43,1.4,.56,.03,0,.06,.02,.09,.02,.85,.22,1.72,.29,2.6,.27q.13,0,.13,.1c0,.43,.01,.86,0,1.29Z"/>
      <path class="cls-6" d="M48.49,66.96q0-.09-.11-.09c-.77,.02-1.53-.04-2.27-.22-.02,0-.03,0-.05-.01-.47-.12-.92-.28-1.32-.52-.07-.04-.11-.04-.17,0h0c-.63,.36-1.34,.56-2.09,.67-.53,.08-1.06,.1-1.59,.08-.05,0-.07,.01-.07,.06v.79h-.02c.02,.31,.03,.61,.05,.92,.04,.52,.13,1.03,.27,1.53,.05,.16,.1,.33,.15,.49,.2,.58,.49,1.14,.88,1.66,.16,.2,.32,.39,.5,.57,.54,.53,1.19,.95,1.94,1.28,.05,.02,.09,.02,.14,0,1.09-.47,1.96-1.15,2.58-2.04,.45-.64,.73-1.32,.91-2.04,.17-.65,.26-1.31,.28-1.98,0-.38,0-.76,0-1.15Z"/>
      <path class="cls-9" d="M48.49,68.11c-.02,.67-.11,1.32-.28,1.98-.19,.72-.47,1.4-.91,2.04-.62,.89-1.49,1.57-2.58,2.04-.05,.02-.09,.02-.14,0-.75-.32-1.4-.75-1.94-1.28,1.47-1.07,2.5-2.93,3.06-4.62,.17-.53,.31-1.07,.4-1.62,.74,.18,1.5,.25,2.27,.22q.11,0,.11,.09c0,.38,.01,.76,0,1.15Z"/>
      <path class="cls-11" d="M49.58,67.53c-.02,.86-.14,1.7-.35,2.54-.24,.92-.6,1.8-1.17,2.61-.8,1.14-1.91,2.01-3.32,2.62-.06,.03-.11,.03-.17,0-1.09-.47-2.01-1.1-2.74-1.9,.15-.1,.31-.19,.47-.28,.62,.64,1.39,1.15,2.28,1.54,.05,.02,.1,.02,.15,0,1.23-.53,2.2-1.29,2.9-2.29,.5-.71,.82-1.48,1.03-2.29,.19-.73,.29-1.47,.31-2.22,.01-.43,0-.86,0-1.29q0-.1-.13-.1c-.88,.02-1.75-.05-2.6-.27-.03,0-.06-.02-.09-.02,.01-.18,.02-.4,.03-.61,.09,.03,.19,.05,.28,.08,.97,.25,1.96,.33,2.97,.3,.14,0,.14,0,.14,.11,0,.49,.01,.98,0,1.47Z"/>
    </g>
    <g>
      <path class="cls-3" d="M64.05,86.93c.4-.15,.8-.35,1.22-.32,.3,.02,.58,.16,.86,.27,1.16,.48,2.45,.67,3.7,.55,.07,1.53-.08,3.1-.62,4.53s-1.49,2.74-2.79,3.56c-.35,.22-.73,.41-1.15,.44-.83,.07-1.59-.47-2.17-1.07-1.04-1.07-1.78-2.41-2.17-3.85-.19-.72-.3-1.46-.31-2.2,0-.53-.12-1.33,.56-1.43,.46-.07,.94-.02,1.41-.1,.49-.08,.98-.21,1.45-.39Z"/>
      <path class="cls-10" d="M70.15,87.24c0-.12,0-.12-.14-.11-1.01,.03-2.01-.05-2.97-.3-.1-.02-.19-.05-.28-.08-.5-.14-.98-.33-1.42-.59-.09-.05-.14-.05-.22,0-.81,.47-1.73,.72-2.68,.86-.68,.1-1.36,.13-2.05,.11-.07,0-.09,.01-.09,.07,0,.34,0,.68,0,1.02h-.03c.02,.39,.03,.79,.07,1.18,.05,.66,.16,1.32,.34,1.96,.27,.98,.68,1.91,1.33,2.76,.12,.16,.25,.32,.39,.46,.73,.8,1.65,1.43,2.74,1.9,.06,.03,.11,.03,.17,0,1.41-.61,2.52-1.47,3.32-2.62,.57-.82,.94-1.69,1.17-2.61,.22-.84,.33-1.69,.35-2.54,.01-.49,0-.98,0-1.47Zm-.62,1.8c-.02,.75-.12,1.49-.31,2.22-.21,.8-.53,1.57-1.03,2.29-.7,1-1.67,1.76-2.9,2.29-.05,.02-.1,.02-.15,0-.9-.38-1.66-.9-2.28-1.54-.17-.17-.32-.35-.46-.53-.57-.74-.93-1.56-1.17-2.41-.16-.57-.25-1.14-.29-1.72-.03-.34-.04-.69-.06-1.03h.03c0-.3,0-.6,0-.9,0-.05,.02-.07,.08-.06,.6,.02,1.2,0,1.79-.09,.84-.12,1.64-.34,2.35-.75,.08-.04,.12-.04,.2,0,.42,.26,.9,.43,1.4,.56,.03,0,.06,.02,.09,.02,.85,.22,1.72,.29,2.6,.27q.13,0,.13,.1c0,.43,.01,.86,0,1.29Z"/>
      <path class="cls-6" d="M69.06,88.15q0-.09-.11-.09c-.77,.02-1.53-.04-2.27-.22-.02,0-.03,0-.05-.01-.47-.12-.92-.28-1.32-.52-.07-.04-.11-.04-.17,0h0c-.63,.36-1.34,.56-2.09,.67-.53,.08-1.06,.1-1.59,.08-.05,0-.07,.01-.07,.06v.79h-.02c.02,.31,.03,.61,.05,.92,.04,.52,.13,1.03,.27,1.53,.05,.16,.1,.33,.15,.49,.2,.58,.49,1.14,.88,1.66,.16,.2,.32,.39,.5,.57,.54,.53,1.19,.95,1.94,1.28,.05,.02,.09,.02,.14,0,1.09-.47,1.96-1.15,2.58-2.04,.45-.64,.73-1.32,.91-2.04,.17-.65,.26-1.31,.28-1.98,0-.38,0-.76,0-1.15Z"/>
      <path class="cls-9" d="M69.06,89.29c-.02,.67-.11,1.32-.28,1.98-.19,.72-.47,1.4-.91,2.04-.62,.89-1.49,1.57-2.58,2.04-.05,.02-.09,.02-.14,0-.75-.32-1.4-.75-1.94-1.28,1.47-1.07,2.5-2.93,3.06-4.62,.17-.53,.31-1.07,.4-1.62,.74,.18,1.5,.25,2.27,.22q.11,0,.11,.09c0,.38,.01,.76,0,1.15Z"/>
      <path class="cls-11" d="M70.15,88.71c-.02,.86-.14,1.7-.35,2.54-.24,.92-.6,1.8-1.17,2.61-.8,1.14-1.91,2.01-3.32,2.62-.06,.03-.11,.03-.17,0-1.09-.47-2.01-1.1-2.74-1.9,.15-.1,.31-.19,.47-.28,.62,.64,1.39,1.15,2.28,1.54,.05,.02,.1,.02,.15,0,1.23-.53,2.2-1.29,2.9-2.29,.5-.71,.82-1.48,1.03-2.29,.19-.73,.29-1.47,.31-2.22,.01-.43,0-.86,0-1.29q0-.1-.13-.1c-.88,.02-1.75-.05-2.6-.27-.03,0-.06-.02-.09-.02,.01-.18,.02-.4,.03-.61,.09,.03,.19,.05,.28,.08,.97,.25,1.96,.33,2.97,.3,.14,0,.14,0,.14,.11,0,.49,.01,.98,0,1.47Z"/>
    </g>
  </g>
</svg>