<?xml version="1.0" encoding="UTF-8"?>
<svg id="Layer_2" data-name="Layer 2" xmlns="http://www.w3.org/2000/svg" viewBox="0 0 30.31 32.44">
  <defs>
    <style>
      .cls-1 {
        fill: #e65454;
      }

      .cls-2 {
        fill: #656565;
      }

      .cls-3 {
        fill: #c29376;
      }

      .cls-4 {
        fill: #dbb79d;
      }

      .cls-5 {
        fill: #191918;
      }

      .cls-6 {
        fill: #868686;
      }

      .cls-7 {
        fill: #2f2e30;
      }

      .cls-8 {
        fill: #777776;
        opacity: .4;
      }
    </style>
  </defs>
  <g id="Layer_1-2" data-name="Layer 1">
    <g>
      <path class="cls-4" d="M12.24,16.41c-1.71-1.61-2.88-3.79-3.25-6.11-.11-.68-.14-1.44,.27-2,.37-.49,.99-.7,1.58-.86,2.33-.61,4.79-.74,7.17-.38,.73,.11,1.46,.27,2.12,.61,.66,.34,1.24,.87,1.52,1.55,.27,.67,.23,1.44,.02,2.13s-.57,1.33-.94,1.95c-.64,1.07-1.31,2.13-2.2,2.99-.68,.65-1.51,1.19-2.42,1.44-.41,.11-.71,.09-1.12,.02-.48-.09-.93-.14-1.38-.37-.5-.25-.96-.59-1.37-.98Z"/>
      <path class="cls-3" d="M10.82,9.94c-.22,0-.46,0-.65,.11-.22,.14-.32,.43-.3,.69s.13,.51,.23,.75,.22,.49,.23,.75c-.51-.31-1.03-.65-1.35-1.15s-.41-1.21-.05-1.68c.29-.37,.79-.53,1.26-.51s.92,.18,1.36,.35c.34,.13,.67,.25,1.01,.38,.12,.04,.66,.2,.34,.38-.1,.05-.39,0-.5-.01l-.53-.02c-.35-.01-.7-.02-1.05-.03Z"/>
      <path class="cls-3" d="M18.4,9.9c.36-.06,.73-.15,1.1-.1s.74,.25,.86,.6c.49-.06,.97-.28,1.26-.67s.34-.98,.05-1.38c-.28-.38-.79-.5-1.26-.55-1.34-.14-2.73,.13-3.92,.76-.54,.29-1.16,.69-1.45,1.26-.1,.19,.01,.2,.2,.21,.2,.02,.4,.03,.61,.04,.4,.02,.8,.01,1.2-.01,.46-.03,.91-.08,1.36-.16Z"/>
      <path class="cls-7" d="M30.24,26.48c-.22-1.1-.56-2.17-.85-3.25-.58-1.52-1.17-3.03-1.95-4.47-.36-.67-.8-1.22-1.34-1.65-.05-.04-.11-.08-.16-.12-.43-.31-.93-.55-1.5-.7-1.06-.29-2.12-.61-3.18-.91-.2-.06-.39-.11-.68-.19-.02,0-.04-.01-.05-.02,.12-.1,.24-.19,.35-.29,.61-.53,1.09-1.1,1.51-1.72,.51-.77,.89-1.61,1.09-2.51,.38-1.71-.36-3.4-.99-4.95-.61-1.51-1.63-2.85-2.91-3.85-1.23-.95-2.7-1.58-4.23-1.82-1.4-.22-2.99,.57-4.06,1.42-1.37,1.09-2.35,2.6-3.12,4.17-.57,1.17-1.03,2.39-1.38,3.64-.32,1.14,.28,2.41,.83,3.4,.43,.78,.98,1.47,1.64,2.07,.03,.03,.08,.06,.12,.1,.12,.09,.25,.19,.23,.31,0,.03-.02,.05-.03,.07-.09,.13-.33,.1-.49,.15-.99,.3-1.98,.61-2.98,.85-1.65,.4-2.73,1.41-3.45,2.91-.55,1.15-1.07,2.31-1.5,3.51-.06,.17-.07,.37-.23,.5-.24,.92-.47,1.84-.73,2.75-.37,1.29-.23,2.45,.75,3.44,.36,.36,.73,.71,1.14,1.02,.85,.64,1.8,1.08,2.76,1.51,.59,.12,1.2,.02,1.79,.09,0-.06,0-.13,0-.19-1.48,.02-1.5-.02-1.71-1.48-.4-2.74-.84-5.47-1.26-8.2-.1-.65-.19-1.31-.29-1.96-.11-.73,.16-1.04,.91-1.04,2.33,0,4.66,0,6.99,0,.94,0,1.88,0,2.82,0h1.9c3.26,0,6.52,0,9.78,0,1.08,0,1.28,.2,1.13,1.27-.26,1.85-.56,3.69-.85,5.53-.25,1.63-.5,3.25-.75,4.88-.14,.89-.29,1.01-1.2,1.01-.14,0-.27,0-.41,0,0,.06,0,.13,0,.19,.57-.03,1.13-.05,1.7-.08,.11-.05,.21-.1,.32-.14,1.48-.61,2.83-1.4,3.87-2.65,.62-.75,.85-1.59,.66-2.56Zm-14.91-9.9c-.65,.04-1.31-.02-1.94-.2-.09-.02-.18-.05-.27-.08-.02,0-.04-.01-.06-.02-.12-.04-.24-.09-.32-.18-.11-.11-.07-.16-.01-.26,0-.01,.01-.02,.02-.04,0,0,0-.01,.01-.02,.11-.21,.02-.35-.15-.45-.03-.02-.06-.03-.09-.05-.14-.07-.28-.14-.4-.22-.14-.08-.26-.18-.38-.28-.03-.02-.05-.04-.08-.07,0,0-.01,0-.01-.01-.02-.01-.03-.03-.05-.05-.02-.02-.03-.03-.05-.05-.01-.01-.03-.02-.04-.04-.03-.04-.07-.07-.1-.11,0,0-.01-.01-.01-.02-.03-.04-.06-.07-.09-.11-.01-.02-.03-.03-.04-.05,0-.01-.02-.02-.02-.03-.02-.03-.05-.07-.07-.11-.11-.16-.21-.29-.26-.47,0-.03-.03-.07-.03-.1-.02-.11-.08-.2-.12-.3-.08-.18-.12-.37-.22-.58-.31-.64-.52-1.32-.7-2-.07-.29-.23-.67-.19-.97,0-.03,0-.05,.02-.07h0c.02-.05,.04-.1,.07-.13,.06-.06,.14-.1,.23-.11,.01,0,.03,0,.04,0,.03,0,.06,0,.09,0,.03,0,.05,0,.08,0,.06,0,.13,0,.2,.01,.6,.06,1.4,.33,1.6,.37,1.03,.19,2.08,.27,3.13,.23,1.57-.06,3.03-.59,4.57-.76,.06,0,.12-.01,.17-.02,.03,0,.06,0,.1,0,0,0,.02,0,.03,0,.22,0,.38,.1,.41,.31,0,.03,0,.07,0,.11,0,.01,0,.02,0,.03,0,.05,0,.1,0,.15,0,.12-.02,.24-.03,.36-.03,.27-.07,.54-.12,.8-.17,.89-.56,1.84-1.01,2.64-.2,.35-.32,.6-.59,.89-.15,.16-.32,.29-.5,.41-.15,.1-.3,.19-.46,.27-.02,0-.03,.02-.05,.02-.02,.01-.04,.02-.06,.04-.04,.03-.08,.05-.12,.08-.13,.1-.21,.21-.2,.36,0,.06,.03,.14,.07,.21,.01,.02,.03,.05,.04,.07,0,0,0,.01,0,.01,0,0,0,0,0,0h0s0,0,0,0c.03,.05-.02,.1-.1,.14,0,0,0,0,0,0-.03,.01-.06,.03-.09,.04-.03,.01-.06,.02-.09,.03-.04,.01-.07,.02-.09,.03-.18,.06-.36,.12-.55,.17-.36,.09-.73,.15-1.11,.17Zm-5.61-7.05s-.05,.07-.06,.12c.02-.05,.04-.09,.07-.13,.06-.06,.14-.1,.23-.11-.11,.02-.19,.05-.24,.11Zm0,0s-.05,.07-.06,.12c.02-.05,.04-.09,.07-.13,.06-.06,.14-.1,.23-.11-.11,.02-.19,.05-.24,.11Z"/>
      <path class="cls-5" d="M21.53,11.62c-.63,1.03-1.26,2.06-2.04,2.97-.78,.91-1.73,1.71-2.85,2.15,0-.12,0-.24,.01-.36,.09-.02,.18-.05,.27-.08,.02,0,.04-.01,.06-.02,.1-.03,.21-.08,.29-.14,0,0,0,0,0,0,.01-.01,.02-.02,.03-.03,.04-.04,.06-.08,.07-.11h0s-.02-.09-.06-.15c0-.01-.01-.02-.02-.04,0,0,0-.01-.01-.02-.02-.04-.03-.07-.04-.1-.04-.16,.05-.26,.19-.35,0,0,0,0,.01,0,.02-.01,.05-.03,.08-.04,.14-.07,.28-.14,.4-.22,.07-.04,.14-.09,.21-.14,.18-.12,.35-.25,.5-.41,.27-.29,.39-.54,.59-.89,.45-.8,.84-1.74,1.01-2.64,.05-.26,.09-.53,.12-.8,.04-.16,.06-.32,.05-.46,0-.01,0-.03,0-.04,0-.01,0-.02,0-.03,0-.04,0-.08,0-.11,.1,.04,.19,.16,.26,.22,.26,.24,.52,.49,.78,.73,.14,.13,.28,.27,.32,.45,.05,.23-.08,.46-.2,.67Z"/>
      <path class="cls-1" d="M20.53,15.17s.04,.01,.05,.02c-.01,0-.02,0-.03,0-.2,.06-.4,.19-.58,.28-.41,.21-.8,.45-1.17,.71-.75,.52-1.44,1.14-2.03,1.83-.28,.33-.54,.67-.78,1.04-.05,.07-.09,.15-.14,.22,.02-.07,.04-.15,.06-.22,.18-.66,.37-1.33,.65-1.95,.33-.71,.75-1.33,1.38-1.79,.83-.6,1.97-.77,2.93-.43-.11,.1-.23,.19-.35,.29Z"/>
      <g>
        <path class="cls-2" d="M26.95,19.87c0,.13-.02,.28-.04,.45-.26,1.85-.56,3.69-.85,5.53-.25,1.63-.5,3.25-.75,4.88-.05,.29-.09,.5-.16,.65-.13,.25-.33,.34-.74,.36-.09,0-.18,0-.29,0h-.07c-.09,0-.18,0-.27,0H6.53c-.12,0-.23,0-.33,0-.3,0-.52-.02-.68-.07-.01,0-.03,0-.04-.01-.05-.02-.09-.04-.13-.07-.01,0-.02-.01-.03-.02-.02-.01-.03-.03-.04-.04-.12-.12-.19-.31-.24-.59-.04-.18-.07-.41-.11-.68-.4-2.74-.84-5.47-1.26-8.2-.07-.43-.13-.87-.19-1.3-.03-.22-.06-.44-.1-.67-.11-.73,.16-1.04,.91-1.04,1.32,0,2.63,0,3.95,0,1.01,0,2.03,0,3.04,0,4.83,0,9.66,0,14.5,0,.91,0,1.19,.14,1.17,.81Z"/>
        <path class="cls-8" d="M26.95,19.87c0,.13-.02,.28-.04,.45-.26,1.85-.56,3.69-.85,5.53-.25,1.63-.5,3.25-.75,4.88-.05,.29-.09,.5-.16,.64-.1,.06-.2,.12-.31,.17-.14,.07-.29,.13-.43,.19-.09,0-.18,0-.29,0-.14,0-.27,0-.41,0-.15-.11-.32-.1-.49-.1-1.95,0-3.89,0-5.84,0-.13,0-.27-.01-.38,.1-1.23,0-2.45,0-3.68-.01-.16-.07-.32-.09-.49-.09-1.9,0-3.8,0-5.7,0-.17,0-.34-.02-.49,.1-1.2,.02-1.44,0-1.6-.8,8.18-1.44,15.9-5.35,21.92-11.06Z"/>
      </g>
      <path class="cls-1" d="M26.11,17.11c-.22,.19-.42,.4-.6,.63-.29,.37-.43,.8-.66,1.2-.06-.47,.13-.99,.41-1.37,.18-.24,.42-.44,.69-.58,.05,.04,.11,.08,.16,.12Z"/>
      <path class="cls-1" d="M4.21,17.11c.22,.19,.42,.4,.6,.63,.29,.37,.43,.8,.66,1.2,.06-.47-.13-.99-.41-1.37-.18-.24-.42-.44-.69-.58-.05,.04-.11,.08-.16,.12Z"/>
      <rect class="cls-2" x="5.54" y="31.85" width="19.38" height=".59" rx=".27" ry=".27"/>
      <path class="cls-5" d="M13.4,16.74c-1.12-.44-2.07-1.24-2.85-2.15-.78-.91-1.41-1.94-2.04-2.97-.12-.2-.25-.43-.2-.67,.04-.18,.18-.33,.32-.45,.26-.24,.52-.49,.78-.73,.09-.08,.19-.23,.32-.24,0,0,.01,0,.02,0-.03,.03-.06,.07-.07,.13h0s-.01,.05-.02,.08c-.04,.3,.12,.68,.19,.97,.18,.69,.39,1.36,.7,2,.1,.21,.14,.4,.22,.58,.04,.1,.1,.19,.12,.3,0,.03,.03,.07,.03,.1,.05,.18,.15,.31,.26,.47,.02,.04,.05,.07,.07,.11,0,.01,.02,.02,.02,.03,.01,.02,.02,.03,.04,.05,.03,.04,.06,.07,.09,.11,0,0,0,.01,.01,.02,.03,.04,.06,.07,.1,.11,.01,.01,.02,.03,.04,.04,.02,.02,.03,.03,.05,.05,.02,.02,.03,.03,.05,.05,0,0,.01,.01,.01,.01,.02,.02,.05,.05,.08,.07,.12,.1,.24,.19,.38,.28,.13,.08,.26,.16,.4,.22,.03,.02,.06,.03,.09,.05,.17,.1,.26,.24,.15,.45,0,0,0,.01-.01,.02,0,.01-.01,.03-.02,.04-.06,.1-.1,.15,.01,.26,.08,.08,.21,.14,.32,.18,.02,0,.04,.01,.06,.02,.09,.03,.18,.05,.27,.08,0,.12,0,.24,.01,.36Z"/>
      <path class="cls-1" d="M14.23,19.27c-.05-.07-.09-.15-.14-.22-.24-.36-.5-.71-.78-1.04-.59-.7-1.28-1.31-2.03-1.83-.38-.26-.77-.5-1.17-.71-.17-.08-.35-.2-.53-.26,.01-.02,.02-.04,.03-.07,.03-.12-.1-.22-.23-.31,.92-.27,1.98-.09,2.76,.48,.18,.13,.34,.29,.5,.45,.38,.36,.66,.87,.88,1.34,.29,.62,.48,1.29,.65,1.95,.02,.07,.04,.15,.06,.22Z"/>
      <path class="cls-6" d="M8.24,19.05c-.92,.06-1.84,.12-2.75,.18-.38,.02-.77,.05-1.1,.22-.5,.24-.8,.76-.91,1.31-.03-.22-.06-.44-.1-.67-.11-.73,.16-1.04,.91-1.04,1.32,0,2.63,0,3.95,0Z"/>
    </g>
  </g>
</svg>