<?xml version="1.0" encoding="UTF-8"?>
<svg id="Layer_2" data-name="Layer 2" xmlns="http://www.w3.org/2000/svg" viewBox="0 0 109.1 100.65">
  <defs>
    <style>
      .cls-1 {
        fill: #fff;
      }

      .cls-2 {
        fill: #fcedc3;
      }

      .cls-3 {
        fill: #d9e8bf;
      }

      .cls-4 {
        fill: #e35658;
      }

      .cls-5 {
        fill: #515051;
      }
    </style>
  </defs>
  <g id="Layer_1-2" data-name="Layer 1">
    <g>
      <path class="cls-2" d="M95.35,82.29l-1.93-.53,.24-.86,1.93,.53-.24,.86Zm1.03-3.75l-1.93-.53,.8-2.89,1.93,.53-.8,2.89Zm1.59-5.78l-1.93-.53,.8-2.89,1.93,.53-.8,2.89Zm1.6-5.78l-1.93-.53,.8-2.89,1.93,.53-.8,2.89Zm1.59-5.78l-1.93-.53,.8-2.89,1.93,.53-.8,2.89Zm1.59-5.78l-1.93-.53,.8-2.89,1.93,.53-.8,2.89Zm-1.42-5.05l-2.04-2.2,1.46-1.36,2.04,2.2-1.46,1.36Zm-4.09-4.39l-2.04-2.2,1.46-1.36,2.04,2.2-1.46,1.36Zm-4.09-4.39l-2.04-2.2,1.46-1.36,2.04,2.2-1.46,1.36Zm-4.09-4.39l-2.04-2.2,1.46-1.36,2.04,2.2-1.46,1.36Zm-4.09-4.39l-2.04-2.2,1.46-1.36,2.04,2.2-1.46,1.36Zm-4.09-4.39l-2.04-2.2,1.46-1.36,2.04,2.2-1.46,1.36Z"/>
      <path class="cls-2" d="M89.32,77.94l-.11-.88,1.99-.24,.11,.88-1.99,.24Zm-.46-3.86l-.36-2.98,1.99-.24,.36,2.98-1.99,.24Zm-.72-5.96l-.36-2.98,1.99-.24,.36,2.98-1.99,.24Zm-.72-5.96l-.36-2.98,1.99-.24,.36,2.98-1.99,.24Zm-.72-5.96l-.36-2.98,1.99-.24,.36,2.98-1.99,.24Zm-.72-5.96l-.36-2.98,1.99-.24,.36,2.98-1.99,.24Zm-.72-5.96l-.36-2.98,1.99-.24,.36,2.98-1.99,.24Zm-.72-5.96l-.36-2.98,1.99-.24,.36,2.98-1.99,.24Zm-.72-5.96l-.36-2.98,1.99-.24,.36,2.98-1.99,.24Z"/>
      <path class="cls-2" d="M66.97,95.65l-1.02-1.72,.4-.24,1.02,1.72-.4,.24Zm2.98-1.78l-1.02-1.72,2.58-1.54,1.02,1.72-2.58,1.54Zm5.16-3.07l-1.02-1.72,2.58-1.53,1.02,1.72-2.58,1.53Zm5.16-3.07l-1.02-1.72,2.58-1.54,1.02,1.72-2.58,1.54Zm5.16-3.07l-1.02-1.72,2.58-1.53,1.02,1.72-2.58,1.53Zm5.16-3.07l-.46-.77-.31,.27-1.6-1.81,1.5-1.32,2.4,2.72-1.54,.92Zm-4.35-4.56l-1.99-2.25,1.5-1.32,1.99,2.25-1.5,1.32Zm-3.97-4.5l-1.99-2.25,1.5-1.32,1.99,2.25-1.5,1.32Zm-3.97-4.5l-1.99-2.25,1.5-1.32,1.99,2.25-1.5,1.32Zm-3.97-4.5l-1.99-2.25,1.5-1.32,1.99,2.25-1.5,1.32Zm-3.97-4.5l-1.99-2.25,1.5-1.32,1.99,2.25-1.5,1.32Z"/>
      <circle class="cls-2" cx="101.74" cy="50.69" r="7.36"/>
      <rect class="cls-4" x="68.58" y="8.63" width="2.43" height="19.49" transform="translate(14.38 64.62) rotate(-54.59)"/>
      <rect class="cls-3" x="5.34" y="75.78" width="28.47" height="2.43" transform="translate(-59.67 82.79) rotate(-79.92)"/>
      <rect class="cls-4" x="46.78" y="73.7" width="36.76" height="2.43" transform="translate(-11.72 137.76) rotate(-88.25)"/>
      <rect class="cls-4" x="58.31" y="39.36" width="31.06" height="2.43" transform="translate(5.75 90.19) rotate(-64.87)"/>
      <polygon class="cls-3" points="22.96 63.81 21.18 62.16 40.93 40.86 7.22 37.07 7.49 34.65 45.99 38.98 22.96 63.81"/>
      <polygon class="cls-3" points="21 63.56 5.73 35.42 52.46 7.53 53.7 9.62 8.98 36.31 23.14 62.4 21 63.56"/>
      <rect class="cls-4" x="32.74" y="23.03" width="33.65" height="2.43" transform="translate(8.99 61.64) rotate(-68.73)"/>
      <polygon class="cls-4" points="63.8 94.21 42.24 75.45 42.24 39.92 44.67 39.92 44.67 74.34 65.4 92.37 63.8 94.21"/>
      <rect class="cls-4" x="60.24" y="10.22" width="2.43" height="45.17" transform="translate(-6.35 16.84) rotate(-14.85)"/>
      <rect class="cls-4" x="60.24" y="10.22" width="2.43" height="45.17" transform="translate(-6.35 16.84) rotate(-14.85)"/>
      <g>
        <circle class="cls-5" cx="55.67" cy="8.57" r="7.36"/>
        <path class="cls-1" d="M55.67,17.15c-4.73,0-8.57-3.85-8.57-8.57S50.95,0,55.67,0s8.57,3.85,8.57,8.57-3.85,8.57-8.57,8.57Zm0-14.71c-3.39,0-6.14,2.75-6.14,6.14s2.75,6.14,6.14,6.14,6.14-2.75,6.14-6.14-2.75-6.14-6.14-6.14Z"/>
      </g>
      <circle class="cls-4" cx="80.42" cy="26.51" r="7.36"/>
      <circle class="cls-4" cx="67.25" cy="54.64" r="7.36"/>
      <circle class="cls-4" cx="43.46" cy="39.92" r="7.36"/>
      <circle class="cls-4" cx="43.46" cy="74.9" r="7.36"/>
      <circle class="cls-3" cx="7.36" cy="35.86" r="7.36"/>
      <circle class="cls-3" cx="22.07" cy="62.98" r="7.36"/>
      <circle class="cls-4" cx="65.71" cy="93.29" r="7.36"/>
      <circle class="cls-3" cx="17.08" cy="90.11" r="7.36"/>
      <g id="_3drcCb.tif" data-name="3drcCb.tif">
        <path class="cls-5" d="M72.94,43.01c-.3-.18-.49-.42-.61-.72-.55-1.35-1.11-2.7-1.64-4.05-.24-.62-.06-1.08,.48-1.32,.61-.27,1.02-.14,1.36,.47,.5,.91,.83,1.9,1.23,2.86,.14,.34,.27,.42,.64,.27,.95-.41,1.92-.77,2.9-1.14,.39-.15,.76-.1,1.06,.22,.3,.31,.33,.68,.22,1.07-.09,.31-.3,.49-.59,.6-1.37,.56-2.73,1.11-4.1,1.67-.31,.13-.63,.16-.94,.07Z"/>
      </g>
      <g id="_3drcCb.tif-2" data-name="3drcCb.tif">
        <path class="cls-5" d="M65.55,72.36c-.35-.04-.62-.18-.85-.39-1.07-.99-2.14-1.97-3.2-2.98-.48-.46-.51-.96-.13-1.4,.44-.51,.87-.56,1.43-.15,.84,.61,1.55,1.38,2.32,2.07,.28,.25,.42,.27,.69-.03,.69-.77,1.42-1.51,2.14-2.25,.29-.29,.65-.41,1.05-.25,.4,.16,.58,.47,.65,.88,.05,.31-.07,.57-.28,.79-1,1.08-2,2.16-3.01,3.25-.23,.25-.5,.41-.82,.46Z"/>
      </g>
      <g id="_3drcCb.tif-3" data-name="3drcCb.tif">
        <path class="cls-5" d="M71.12,19.22c-.26,.23-.55,.34-.87,.36-1.45,.12-2.9,.25-4.36,.36-.66,.05-1.05-.27-1.12-.85-.08-.66,.17-1.02,.86-1.16,1.02-.21,2.06-.22,3.1-.31,.37-.03,.48-.13,.44-.53-.1-1.03-.16-2.07-.22-3.1-.02-.41,.13-.75,.52-.95,.38-.19,.74-.11,1.08,.11,.27,.17,.37,.43,.4,.74,.12,1.47,.24,2.94,.37,4.41,.03,.34-.04,.65-.21,.92Z"/>
      </g>
      <g id="_3drcCb.tif-4" data-name="3drcCb.tif">
        <path class="cls-5" d="M61.97,34.42c-.35,.02-.64-.07-.9-.25-1.22-.8-2.44-1.59-3.65-2.41-.55-.37-.66-.86-.35-1.36,.35-.57,.76-.7,1.39-.38,.93,.47,1.76,1.1,2.63,1.66,.31,.2,.46,.19,.68-.14,.55-.88,1.15-1.72,1.74-2.57,.24-.34,.57-.51,1-.42,.42,.09,.65,.37,.78,.76,.1,.3,.03,.57-.14,.83-.81,1.23-1.62,2.46-2.43,3.7-.19,.28-.43,.49-.73,.59Z"/>
      </g>
      <g id="_3drcCb.tif-5" data-name="3drcCb.tif">
        <path class="cls-5" d="M47.97,27.33c-.3-.18-.49-.41-.62-.71-.57-1.34-1.15-2.68-1.71-4.02-.25-.61-.07-1.08,.46-1.33,.61-.28,1.02-.16,1.37,.45,.52,.9,.86,1.89,1.27,2.84,.15,.34,.28,.42,.64,.26,.95-.42,1.91-.8,2.88-1.18,.38-.15,.76-.11,1.06,.2,.3,.3,.34,.67,.23,1.07-.08,.31-.29,.49-.58,.61-1.36,.58-2.71,1.16-4.07,1.74-.31,.13-.63,.17-.94,.09Z"/>
      </g>
      <g id="_3drcCb.tif-6" data-name="3drcCb.tif">
        <path class="cls-5" d="M43.48,58.9c-.34-.05-.61-.2-.84-.42-1.03-1.03-2.07-2.05-3.09-3.09-.46-.47-.47-.98-.07-1.4,.46-.49,.89-.53,1.44-.1,.82,.64,1.5,1.43,2.24,2.16,.27,.26,.41,.28,.69,0,.72-.75,1.47-1.46,2.22-2.17,.3-.28,.66-.39,1.06-.21,.39,.17,.56,.5,.62,.9,.04,.31-.09,.56-.31,.78-1.04,1.04-2.08,2.09-3.12,3.13-.24,.24-.52,.39-.84,.43Z"/>
      </g>
      <g id="_3drcCb.tif-7" data-name="3drcCb.tif">
        <path class="cls-5" d="M56.39,86.3c-.29,.19-.59,.25-.91,.23-1.45-.09-2.91-.17-4.36-.27-.66-.05-1-.42-.99-1,.02-.67,.32-.98,1.01-1.02,1.04-.06,2.07,.08,3.11,.13,.37,.02,.5-.06,.52-.46,.04-1.04,.14-2.07,.23-3.1,.04-.41,.24-.73,.65-.86,.41-.13,.75,0,1.06,.27,.24,.21,.31,.48,.29,.79-.09,1.47-.18,2.94-.27,4.42-.02,.34-.13,.64-.34,.88Z"/>
      </g>
      <circle class="cls-2" cx="91.31" cy="82.25" r="7.36"/>
    </g>
  </g>
</svg>