<?xml version="1.0" encoding="UTF-8"?>
<svg id="Layer_2" data-name="Layer 2" xmlns="http://www.w3.org/2000/svg" viewBox="0 0 32.1 33.66">
  <defs>
    <style>
      .cls-1 {
        fill: #fff;
      }

      .cls-2 {
        fill: #c6c6c6;
      }

      .cls-3 {
        fill: #515051;
      }
    </style>
  </defs>
  <g id="Layer_1-2" data-name="Layer 1">
    <g>
      <path class="cls-1" d="M28.89,20.15c-.63,1.65-1.46,3.25-2.46,4.71-.06,.09-.12,.19-.19,.27-2.13,3.06-5.02,5.54-8.51,6.79-.7,.25-1.45,.45-2.19,.37-.87-.08-1.66-.53-2.4-1.02-4.34-2.83-7.8-6.99-9.79-11.76-1.43-3.42-2.1-7.16-1.99-10.87,.04-1.1-.11-3.17,.74-4.06,.89-.94,3.16-.41,4.34-.52,2.12-.21,4.21-.74,6.16-1.59,1.05-.46,2.12-1.01,3.26-.98,.83,.03,1.62,.36,2.41,.66,.34,.13,.67,.25,1.02,.35l-.71,.75-.99,1.04,4.4,1.42-.05,.06-3.29,4.43,1.86,9.8,.72-9.31,4.3-3.76-.32-.74-.64-1.47-.34-.78,.35-.24c2.16,.26,4.36,.26,6.53-.02,.13,5.58-.2,11.28-2.21,16.47Z"/>
      <path class="cls-3" d="M32.08,3.62c0-.37,0-.37-.48-.36-2.01,.06-4.01-.03-5.98-.28l-1.05,.73-.35,.24,.34,.78c1.68,.21,3.38,.27,5.1,.22q.41-.02,.41,.32c0,1.39,.04,2.79,0,4.17-.07,2.43-.38,4.84-1,7.21-.68,2.62-1.72,5.11-3.33,7.42-2.28,3.25-5.43,5.72-9.42,7.43-.18,.07-.32,.07-.49,0-3.67-1.59-6.66-3.8-8.89-6.71-1.86-2.41-3.03-5.05-3.8-7.82-.5-1.84-.81-3.7-.95-5.59-.09-1.11-.14-2.22-.21-3.33,.03,0,.05,0,.08,0,0-.97,0-1.93,0-2.9,0-.17,.07-.21,.27-.21,1.95,.07,3.88-.02,5.8-.3,2.72-.41,5.32-1.11,7.63-2.44,.24-.13,.38-.14,.62,0,.69,.42,1.42,.76,2.18,1.06l.71-.75,.76-.79c-1.27-.42-2.48-.93-3.6-1.6-.27-.17-.43-.16-.72,0-.57,.33-1.16,.62-1.76,.89l-1.59,1.52,.12-.94c-1.74,.62-3.58,1.04-5.47,1.31-2.2,.33-4.41,.42-6.64,.35-.22,0-.31,.05-.31,.24,0,1.1,0,2.21,0,3.31h-.08c.07,1.27,.12,2.55,.22,3.81,.17,2.14,.52,4.28,1.1,6.37,.87,3.18,2.2,6.2,4.33,8.95,2.56,3.32,5.97,5.86,10.16,7.67,.21,.08,.36,.07,.57,0,4.42-1.91,7.95-4.61,10.52-8.16l-.65-.3-.8-.37,.99,.1,.8,.08c1.79-2.6,2.95-5.4,3.7-8.33,.71-2.71,1.07-5.46,1.15-8.23,.05-1.59,0-3.17,0-4.77Z"/>
      <path class="cls-2" d="M28.54,6.54c0-.3,0-.3-.37-.28-.99,.03-1.98,0-2.96-.06l.32,.74-4.3,3.76-.72,9.31-1.86-9.8,3.29-4.43c-.43-.07-.86-.17-1.29-.28-1.53-.39-2.98-.9-4.3-1.68-.21-.13-.35-.13-.56,0-2.06,1.18-4.36,1.81-6.79,2.16-.66,.1-1.33,.17-2,.22l-.58,1.91-.07-1.88c-.47,.03-.94,.04-1.41,.04l.13,2.53-1.48-1.99c0,.74,0,1.46,0,2.21h-.07c.07,.99,.1,1.99,.18,2.97,.14,1.67,.42,3.33,.86,4.96,.68,2.47,1.73,4.82,3.38,6.97,.07,.08,.13,.18,.22,.27l1.84-2-1.2,2.74c.1,.13,.22,.26,.36,.39l.78-.78-.19,1.39c1.7,1.63,3.74,2.94,6.1,3.96,.15,.07,.28,.07,.44,0,3.54-1.53,6.36-3.73,8.38-6.62,1.43-2.03,2.35-4.24,2.95-6.55l-2.57-1.19,2.8,.29c.05-.21,.09-.42,.12-.62l-.67-.35,.76-.14c.27-1.48,.43-2.97,.47-4.46,.04-1.24,0-2.48,0-3.72Z"/>
      <g>
        <path class="cls-3" d="M7.54,10.15c.22,3.29,.22,6.59,0,9.88-.22-3.29-.22-6.59,0-9.88h0Z"/>
        <path class="cls-3" d="M12.55,10.15c.21,5.02,.21,10.54,0,15.55-.21-5.02-.21-10.54,0-15.55h0Z"/>
        <path class="cls-3" d="M18.03,5.99c.21,6.36,.21,13.36,0,19.71-.21-6.36-.21-13.36,0-19.71h0Z"/>
        <path class="cls-3" d="M24.18,9.32c.22,4.32,.22,8.64,0,12.96-.22-4.32-.22-8.64,0-12.96h0Z"/>
      </g>
      <g>
        <path class="cls-3" d="M9.64,9.12c.37-.07,.21,.27,.45,.3,.19,.02,.41,.19,.34,.43-.26,.03-.39-.1-.45-.3-.02-.11-.12-.14-.23-.14-.07-.03-.17-.18-.11-.29h0Z"/>
        <path class="cls-3" d="M9.27,10.11c.42,.03,.36,.45,.66,.58,.26,.12,.57,.38,.53,.7-.34-.07-.54-.29-.66-.58-.12-.31-.54-.25-.56-.68,0,0,.02-.02,.02-.02h0Z"/>
        <path class="cls-3" d="M17.21,19.96c.12-.54,.68-.63,.95-1.03,.27-.36,.7-.78,1.16-.78-.27,.43-.63,.69-1.05,.91-.43,.19-.55,.86-1.07,.89h0Z"/>
        <path class="cls-3" d="M23.62,11.54c.44-.03,.5,.42,.84,.52,.3,.1,.69,.32,.74,.67-.38-.04-.64-.24-.84-.52-.2-.29-.65-.22-.76-.64,0,0,.02-.03,.02-.03h0Z"/>
        <path class="cls-3" d="M23.52,14.78c.12-.46,.61-.42,.83-.75,.21-.29,.55-.64,.94-.62-.17,.39-.47,.61-.83,.75-.37,.14-.45,.63-.92,.64,0,0-.02-.03-.02-.03h0Z"/>
      </g>
    </g>
  </g>
</svg>