<?xml version="1.0" encoding="UTF-8"?>
<svg id="Layer_2" data-name="Layer 2" xmlns="http://www.w3.org/2000/svg" viewBox="0 0 109.35 102.6">
  <defs>
    <style>
      .cls-1 {
        fill: #fcdbdb;
      }

      .cls-2 {
        fill: #e3f6fc;
      }

      .cls-3 {
        fill: #fff;
      }

      .cls-4 {
        fill: #fcc742;
      }

      .cls-5 {
        fill: #bce1f6;
      }

      .cls-6 {
        fill: #c4daa2;
      }

      .cls-7 {
        fill: #d9e8bf;
      }

      .cls-8 {
        fill: #a1d6f6;
      }

      .cls-9 {
        fill: #6c97b2;
      }

      .cls-10 {
        fill: #567e94;
      }

      .cls-11 {
        fill: #515051;
      }
    </style>
  </defs>
  <g id="Layer_1-2" data-name="Layer 1">
    <g>
      <path class="cls-1" d="M67.59,96.08l-2-.06,.04-1.48,2,.06-.04,1.48Zm.14-4.48l-2-.06,.09-3,2,.06-.09,3Zm.18-6l-2-.06,.09-3,2,.06-.09,3Zm.18-6l-2-.06,.09-3,2,.06-.09,3Zm.18-6l-2-.06,.09-3,2,.06-.09,3Zm.18-6l-2-.06,.09-3,2,.06-.09,3Zm.18-6l-2-.06,.09-3,2,.06-.09,3Z"/>
      <polygon class="cls-4" points="67.21 97.1 65.97 95.01 89.29 81.12 68.38 57.45 70.2 55.83 93.05 81.71 67.21 97.1"/>
      <path class="cls-1" d="M46.03,77.3h-2v-3h2v3Zm0-6h-2v-3h2v3Zm0-6h-2v-3h2v3Zm0-6h-2v-3h2v3Zm0-6h-2v-3h2v3Zm0-6h-2v-3h2v3Z"/>
      <path class="cls-1" d="M65.94,96.81l-2.26-1.97,1.31-1.51,2.26,1.97-1.31,1.51Zm-4.53-3.94l-2.26-1.97,1.31-1.51,2.26,1.97-1.31,1.51Zm-4.53-3.94l-2.26-1.97,1.31-1.51,2.26,1.97-1.31,1.51Zm-4.53-3.94l-2.26-1.97,1.31-1.51,2.26,1.97-1.31,1.51Zm-4.53-3.94l-2.26-1.97,1.31-1.51,2.26,1.97-1.31,1.51Z"/>
      <rect class="cls-4" x="86.01" y="28.13" width="2.43" height="49.85" transform="translate(-5.71 10.79) rotate(-6.85)"/>
      <polygon class="cls-4" points="95.52 82.41 93.17 81.76 101.8 50.47 78.46 25.39 62.36 13.94 63.77 11.96 80.16 23.64 104.51 49.81 95.52 82.41"/>
      <rect class="cls-6" x="5.44" y="77.27" width="29.03" height="2.43" transform="translate(-60.81 84.4) rotate(-79.92)"/>
      <rect class="cls-4" x="59.45" y="40.13" width="31.67" height="2.43" transform="translate(5.88 91.95) rotate(-64.87)"/>
      <polygon class="cls-7" points="23.39 65.03 21.61 63.37 41.78 41.62 7.36 37.75 7.64 35.33 46.84 39.75 23.39 65.03"/>
      <polygon class="cls-7" points="21.43 64.78 5.87 36.1 53.5 7.67 54.74 9.76 9.13 36.99 23.57 63.62 21.43 64.78"/>
      <path class="cls-1" d="M45.24,41.05l-1.86-.73,1.09-2.79,1.86,.73-1.09,2.79Zm2.18-5.59l-1.86-.73,1.09-2.79,1.86,.73-1.09,2.79Zm2.18-5.59l-1.86-.73,1.09-2.79,1.86,.73-1.09,2.79Zm2.18-5.59l-1.86-.73,1.09-2.8,1.86,.73-1.09,2.8Zm2.18-5.59l-1.86-.73,1.09-2.79,1.86,.73-1.09,2.79Zm2.18-5.59l-1.86-.73,1.09-2.79,1.86,.73-1.09,2.79Z"/>
      <path class="cls-1" d="M67.33,54.92l-.77-2.9,1.93-.51,.77,2.9-1.93,.51Zm-1.54-5.8l-.77-2.9,1.93-.51,.77,2.9-1.93,.51Zm-1.54-5.8l-.77-2.9,1.93-.51,.77,2.9-1.93,.51Zm-1.54-5.8l-.77-2.9,1.93-.51,.77,2.9-1.93,.51Zm-1.54-5.8l-.77-2.9,1.93-.51,.77,2.9-1.93,.51Zm-1.54-5.8l-.77-2.9,1.93-.51,.77,2.9-1.93,.51Zm-1.54-5.8l-.77-2.9,1.93-.51,.77,2.9-1.93,.51Zm-1.54-5.8l-.77-2.9,1.93-.51,.77,2.9-1.93,.51Z"/>
      <g>
        <circle class="cls-11" cx="56.77" cy="8.72" r="7.5"/>
        <path class="cls-3" d="M56.77,17.43c-4.81,0-8.72-3.91-8.72-8.72S51.96,0,56.77,0s8.72,3.91,8.72,8.72-3.91,8.72-8.72,8.72Zm0-15c-3.46,0-6.28,2.82-6.28,6.28s2.82,6.28,6.28,6.28,6.28-2.82,6.28-6.28-2.82-6.28-6.28-6.28Z"/>
      </g>
      <circle class="cls-4" cx="82" cy="27.01" r="7.5"/>
      <circle class="cls-1" cx="68.57" cy="55.69" r="7.5"/>
      <circle class="cls-1" cx="44.31" cy="40.68" r="7.5"/>
      <circle class="cls-1" cx="44.31" cy="76.35" r="7.5"/>
      <circle class="cls-7" cx="7.5" cy="36.54" r="7.5"/>
      <circle class="cls-7" cx="22.5" cy="64.2" r="7.5"/>
      <circle class="cls-4" cx="101.85" cy="50.14" r="7.5"/>
      <circle class="cls-4" cx="91.2" cy="82.08" r="7.5"/>
      <circle class="cls-1" cx="67" cy="95.1" r="7.5"/>
      <circle class="cls-7" cx="17.41" cy="91.85" r="7.5"/>
      <polygon class="cls-4" points="95.52 82.41 93.17 81.76 101.8 50.47 78.38 25.29 80.16 23.64 104.51 49.81 95.52 82.41"/>
      <g>
        <path class="cls-3" d="M47.15,28.87c.39-.15,.79-.34,1.2-.31,.3,.02,.57,.15,.85,.27,1.14,.47,2.41,.66,3.64,.54,.07,1.51-.08,3.04-.61,4.45-.53,1.41-1.47,2.7-2.74,3.5-.34,.22-.72,.4-1.13,.44-.82,.07-1.56-.46-2.13-1.05-1.02-1.05-1.75-2.37-2.13-3.78-.19-.71-.3-1.43-.31-2.17,0-.52-.11-1.3,.55-1.4,.46-.07,.93-.02,1.39-.09,.49-.08,.96-.21,1.42-.39Z"/>
        <path class="cls-9" d="M53.14,29.18c0-.11,0-.11-.14-.11-1,.03-1.97-.05-2.92-.3-.09-.02-.19-.05-.28-.07-.5-.14-.96-.32-1.39-.58-.08-.05-.13-.05-.22,0-.8,.46-1.7,.7-2.64,.84-.67,.1-1.34,.13-2.01,.11-.07,0-.09,.01-.09,.07,0,.33,0,.67,0,1h-.03c.02,.39,.03,.77,.07,1.16,.05,.65,.16,1.29,.33,1.93,.26,.96,.67,1.88,1.31,2.71,.12,.16,.25,.31,.38,.46,.72,.79,1.63,1.4,2.69,1.86,.06,.03,.11,.03,.17,0,1.38-.6,2.47-1.45,3.26-2.57,.56-.8,.92-1.67,1.15-2.57,.21-.82,.32-1.66,.35-2.5,.01-.48,0-.96,0-1.44Zm-.61,1.77c-.02,.73-.12,1.46-.3,2.18-.21,.79-.52,1.55-1.01,2.25-.69,.99-1.64,1.73-2.85,2.25-.05,.02-.09,.02-.15,0-.88-.38-1.63-.88-2.24-1.51-.16-.17-.31-.34-.45-.52-.56-.73-.92-1.53-1.15-2.37-.15-.56-.25-1.12-.29-1.69-.03-.33-.04-.67-.06-1.01h.03c0-.3,0-.59,0-.88,0-.05,.02-.07,.08-.06,.59,.02,1.18,0,1.76-.09,.82-.12,1.61-.34,2.31-.74,.07-.04,.12-.04,.19,0,.42,.25,.88,.42,1.37,.55,.03,0,.06,.02,.09,.02,.83,.21,1.69,.28,2.56,.26q.13,0,.13,.1c0,.42,.01,.84,0,1.26Z"/>
        <path class="cls-5" d="M52.06,30.07q0-.09-.11-.09c-.76,.02-1.5-.04-2.23-.22-.02,0-.03,0-.04-.01-.46-.12-.9-.27-1.3-.51-.07-.04-.11-.04-.17,0h0c-.62,.36-1.32,.55-2.06,.66-.52,.08-1.04,.1-1.56,.08-.05,0-.07,.01-.07,.06v.78h-.02c.02,.3,.03,.6,.05,.9,.04,.51,.12,1.01,.26,1.5,.04,.16,.09,.32,.15,.48,.2,.57,.48,1.12,.87,1.63,.15,.2,.32,.38,.5,.56,.53,.52,1.16,.94,1.9,1.25,.05,.02,.09,.02,.13,0,1.07-.46,1.93-1.13,2.54-2,.44-.62,.72-1.3,.9-2,.17-.64,.25-1.29,.27-1.94,0-.37,0-.75,0-1.12Z"/>
        <path class="cls-8" d="M52.07,31.19c-.02,.65-.11,1.3-.27,1.94-.18,.7-.46,1.38-.9,2-.61,.87-1.46,1.54-2.54,2-.05,.02-.08,.02-.13,0-.74-.32-1.38-.74-1.9-1.25,1.45-1.05,2.45-2.87,3.01-4.54,.17-.52,.31-1.05,.39-1.59,.73,.18,1.48,.24,2.23,.22q.11,0,.11,.09c0,.37,.01,.75,0,1.12Z"/>
        <path class="cls-10" d="M53.14,30.63c-.02,.84-.13,1.67-.35,2.5-.23,.9-.59,1.77-1.15,2.57-.79,1.12-1.88,1.98-3.26,2.57-.06,.03-.11,.03-.17,0-1.07-.46-1.97-1.08-2.69-1.86,.14-.1,.31-.19,.46-.28,.61,.63,1.36,1.13,2.24,1.51,.05,.02,.09,.02,.15,0,1.21-.52,2.17-1.27,2.85-2.25,.49-.7,.8-1.46,1.01-2.25,.19-.72,.28-1.45,.3-2.18,.01-.42,0-.84,0-1.26q0-.1-.13-.1c-.87,.02-1.72-.05-2.56-.26-.03,0-.06-.02-.09-.02,.01-.18,.02-.4,.03-.6,.09,.03,.18,.05,.28,.07,.95,.24,1.93,.32,2.92,.3,.14,0,.14,0,.14,.11,0,.48,.01,.96,0,1.44Z"/>
      </g>
      <g>
        <path class="cls-3" d="M63.18,33.65c.39-.15,.79-.34,1.2-.31,.3,.02,.57,.15,.85,.27,1.14,.47,2.41,.66,3.64,.54,.07,1.51-.08,3.04-.61,4.45s-1.47,2.7-2.74,3.5c-.34,.22-.72,.4-1.13,.44-.82,.07-1.56-.46-2.13-1.05-1.02-1.05-1.75-2.37-2.13-3.78-.19-.71-.3-1.43-.31-2.17,0-.52-.11-1.3,.55-1.4,.46-.07,.93-.02,1.39-.09,.49-.08,.96-.21,1.42-.39Z"/>
        <path class="cls-9" d="M69.17,33.95c0-.11,0-.11-.14-.11-1,.03-1.97-.05-2.92-.3-.09-.02-.19-.05-.28-.07-.5-.14-.96-.32-1.39-.58-.08-.05-.13-.05-.22,0-.8,.46-1.7,.7-2.64,.84-.67,.1-1.34,.13-2.01,.11-.07,0-.09,.01-.09,.07,0,.33,0,.67,0,1h-.03c.02,.39,.03,.77,.07,1.16,.05,.65,.16,1.29,.33,1.93,.26,.96,.67,1.88,1.31,2.71,.12,.16,.25,.31,.38,.46,.72,.79,1.63,1.4,2.69,1.86,.06,.03,.11,.03,.17,0,1.38-.6,2.47-1.45,3.26-2.57,.56-.8,.92-1.67,1.15-2.57,.21-.82,.32-1.66,.35-2.5,.01-.48,0-.96,0-1.44Zm-.61,1.77c-.02,.73-.12,1.46-.3,2.18-.21,.79-.52,1.55-1.01,2.25-.69,.99-1.64,1.73-2.85,2.25-.05,.02-.09,.02-.15,0-.88-.38-1.63-.88-2.24-1.51-.16-.17-.31-.34-.45-.52-.56-.73-.92-1.53-1.15-2.37-.15-.56-.25-1.12-.29-1.69-.03-.33-.04-.67-.06-1.01h.03c0-.3,0-.59,0-.88,0-.05,.02-.07,.08-.06,.59,.02,1.18,0,1.76-.09,.82-.12,1.61-.34,2.31-.74,.07-.04,.12-.04,.19,0,.42,.25,.88,.42,1.37,.55,.03,0,.06,.02,.09,.02,.83,.21,1.69,.28,2.56,.26q.13,0,.13,.1c0,.42,.01,.84,0,1.26Z"/>
        <path class="cls-5" d="M68.1,34.84q0-.09-.11-.09c-.76,.02-1.5-.04-2.23-.22-.02,0-.03,0-.04-.01-.46-.12-.9-.27-1.3-.51-.07-.04-.11-.04-.17,0h0c-.62,.36-1.32,.55-2.06,.66-.52,.08-1.04,.1-1.56,.08-.05,0-.07,.01-.07,.06v.78h-.02c.02,.3,.03,.6,.05,.9,.04,.51,.12,1.01,.26,1.5,.04,.16,.09,.32,.15,.48,.2,.57,.48,1.12,.87,1.63,.15,.2,.32,.38,.5,.56,.53,.52,1.16,.94,1.9,1.25,.05,.02,.09,.02,.13,0,1.07-.46,1.93-1.13,2.54-2,.44-.62,.72-1.3,.9-2,.17-.64,.25-1.29,.27-1.94,0-.37,0-.75,0-1.12Z"/>
        <path class="cls-8" d="M68.1,35.96c-.02,.65-.11,1.3-.27,1.94-.18,.7-.46,1.38-.9,2-.61,.87-1.46,1.54-2.54,2-.05,.02-.08,.02-.13,0-.74-.32-1.38-.74-1.9-1.25,1.45-1.05,2.45-2.87,3.01-4.54,.17-.52,.31-1.05,.39-1.59,.73,.18,1.48,.24,2.23,.22q.11,0,.11,.09c0,.37,.01,.75,0,1.12Z"/>
        <path class="cls-10" d="M69.17,35.4c-.02,.84-.13,1.67-.35,2.5-.23,.9-.59,1.77-1.15,2.57-.79,1.12-1.88,1.98-3.26,2.57-.06,.03-.11,.03-.17,0-1.07-.46-1.97-1.08-2.69-1.86,.14-.1,.31-.19,.46-.28,.61,.63,1.36,1.13,2.24,1.51,.05,.02,.09,.02,.15,0,1.21-.52,2.17-1.27,2.85-2.25,.49-.7,.8-1.46,1.01-2.25,.19-.72,.28-1.45,.3-2.18,.01-.42,0-.84,0-1.26q0-.1-.13-.1c-.87,.02-1.72-.05-2.56-.26-.03,0-.06-.02-.09-.02,.01-.18,.02-.4,.03-.6,.09,.03,.18,.05,.28,.07,.95,.24,1.93,.32,2.92,.3,.14,0,.14,0,.14,.11,0,.48,.01,.96,0,1.44Z"/>
      </g>
      <g>
        <path class="cls-3" d="M65.13,70.84c.39-.15,.79-.34,1.2-.31,.3,.02,.57,.15,.85,.27,1.14,.47,2.41,.66,3.64,.54,.07,1.51-.08,3.04-.61,4.45s-1.47,2.7-2.74,3.5c-.34,.22-.72,.4-1.13,.44-.82,.07-1.56-.46-2.13-1.05-1.02-1.05-1.75-2.37-2.13-3.78-.19-.71-.3-1.43-.31-2.17,0-.52-.11-1.3,.55-1.4,.46-.07,.93-.02,1.39-.09,.49-.08,.96-.21,1.42-.39Z"/>
        <path class="cls-5" d="M71.13,71.15c0-.11,0-.11-.14-.11-1,.03-1.97-.05-2.92-.3-.09-.02-.19-.05-.28-.07-.5-.14-.96-.32-1.39-.58-.08-.05-.13-.05-.22,0-.8,.46-1.7,.7-2.64,.84-.67,.1-1.34,.13-2.01,.11-.07,0-.09,.01-.09,.07,0,.33,0,.67,0,1h-.03c.02,.39,.03,.77,.07,1.16,.05,.65,.16,1.29,.33,1.93,.26,.96,.67,1.88,1.31,2.71,.12,.16,.25,.31,.38,.46,.72,.79,1.63,1.4,2.69,1.86,.06,.03,.11,.03,.17,0,1.38-.6,2.47-1.45,3.26-2.57,.56-.8,.92-1.67,1.15-2.57,.21-.82,.32-1.66,.35-2.5,.01-.48,0-.96,0-1.44Zm-.61,1.77c-.02,.73-.12,1.46-.3,2.18-.21,.79-.52,1.55-1.01,2.25-.69,.99-1.64,1.73-2.85,2.25-.05,.02-.09,.02-.15,0-.88-.38-1.63-.88-2.24-1.51-.16-.17-.31-.34-.45-.52-.56-.73-.92-1.53-1.15-2.37-.15-.56-.25-1.12-.29-1.69-.03-.33-.04-.67-.06-1.01h.03c0-.3,0-.59,0-.88,0-.05,.02-.07,.08-.06,.59,.02,1.18,0,1.76-.09,.82-.12,1.61-.34,2.31-.74,.07-.04,.12-.04,.19,0,.42,.25,.88,.42,1.37,.55,.03,0,.06,.02,.09,.02,.83,.21,1.69,.28,2.56,.26q.13,0,.13,.1c0,.42,.01,.84,0,1.26Z"/>
        <path class="cls-2" d="M70.05,72.03q0-.09-.11-.09c-.76,.02-1.5-.04-2.23-.22-.02,0-.03,0-.04-.01-.46-.12-.9-.27-1.3-.51-.07-.04-.11-.04-.17,0h0c-.62,.36-1.32,.55-2.06,.66-.52,.08-1.04,.1-1.56,.08-.05,0-.07,.01-.07,.06v.78h-.02c.02,.3,.03,.6,.05,.9,.04,.51,.12,1.01,.26,1.5,.04,.16,.09,.32,.15,.48,.2,.57,.48,1.12,.87,1.63,.15,.2,.32,.38,.5,.56,.53,.52,1.16,.94,1.9,1.25,.05,.02,.09,.02,.13,0,1.07-.46,1.93-1.13,2.54-2,.44-.62,.72-1.3,.9-2,.17-.64,.25-1.29,.27-1.94,0-.37,0-.75,0-1.12Z"/>
      </g>
      <g>
        <path class="cls-3" d="M42.89,54.9c.39-.15,.79-.34,1.2-.31,.3,.02,.57,.15,.85,.27,1.14,.47,2.41,.66,3.64,.54,.07,1.51-.08,3.04-.61,4.45s-1.47,2.7-2.74,3.5c-.34,.22-.72,.4-1.13,.44-.82,.07-1.56-.46-2.13-1.05-1.02-1.05-1.75-2.37-2.13-3.78-.19-.71-.3-1.43-.31-2.17,0-.52-.11-1.3,.55-1.4,.46-.07,.93-.02,1.39-.09,.49-.08,.96-.21,1.42-.39Z"/>
        <path class="cls-5" d="M48.88,55.21c0-.11,0-.11-.14-.11-1,.03-1.97-.05-2.92-.3-.09-.02-.19-.05-.28-.07-.5-.14-.96-.32-1.39-.58-.08-.05-.13-.05-.22,0-.8,.46-1.7,.7-2.64,.84-.67,.1-1.34,.13-2.01,.11-.07,0-.09,.01-.09,.07,0,.33,0,.67,0,1h-.03c.02,.39,.03,.77,.07,1.16,.05,.65,.16,1.29,.33,1.93,.26,.96,.67,1.88,1.31,2.71,.12,.16,.25,.31,.38,.46,.72,.79,1.63,1.4,2.69,1.86,.06,.03,.11,.03,.17,0,1.38-.6,2.47-1.45,3.26-2.57,.56-.8,.92-1.67,1.15-2.57,.21-.82,.32-1.66,.35-2.5,.01-.48,0-.96,0-1.44Zm-.61,1.77c-.02,.73-.12,1.46-.3,2.18-.21,.79-.52,1.55-1.01,2.25-.69,.99-1.64,1.73-2.85,2.25-.05,.02-.09,.02-.15,0-.88-.38-1.63-.88-2.24-1.51-.16-.17-.31-.34-.45-.52-.56-.73-.92-1.53-1.15-2.37-.15-.56-.25-1.12-.29-1.69-.03-.33-.04-.67-.06-1.01h.03c0-.3,0-.59,0-.88,0-.05,.02-.07,.08-.06,.59,.02,1.18,0,1.76-.09,.82-.12,1.61-.34,2.31-.74,.07-.04,.12-.04,.19,0,.42,.25,.88,.42,1.37,.55,.03,0,.06,.02,.09,.02,.83,.21,1.69,.28,2.56,.26q.13,0,.13,.1c0,.42,.01,.84,0,1.26Z"/>
        <path class="cls-2" d="M47.81,56.1q0-.09-.11-.09c-.76,.02-1.5-.04-2.23-.22-.02,0-.03,0-.04-.01-.46-.12-.9-.27-1.3-.51-.07-.04-.11-.04-.17,0h0c-.62,.36-1.32,.55-2.06,.66-.52,.08-1.04,.1-1.56,.08-.05,0-.07,.01-.07,.06v.78h-.02c.02,.3,.03,.6,.05,.9,.04,.51,.12,1.01,.26,1.5,.04,.16,.09,.32,.15,.48,.2,.57,.48,1.12,.87,1.63,.15,.2,.32,.38,.5,.56,.53,.52,1.16,.94,1.9,1.25,.05,.02,.09,.02,.13,0,1.07-.46,1.93-1.13,2.54-2,.44-.62,.72-1.3,.9-2,.17-.64,.25-1.29,.27-1.94,0-.37,0-.75,0-1.12Z"/>
      </g>
    </g>
    <g id="_3drcCb.tif" data-name="3drcCb.tif">
      <path class="cls-11" d="M71.23,19.05c-.27,.23-.56,.34-.88,.37-1.48,.12-2.96,.26-4.44,.36-.67,.05-1.07-.28-1.14-.87-.08-.68,.17-1.04,.87-1.18,1.04-.21,2.1-.22,3.16-.32,.38-.04,.49-.14,.45-.54-.11-1.05-.16-2.11-.22-3.16-.02-.42,.14-.77,.53-.96,.39-.19,.76-.11,1.11,.12,.27,.18,.38,.44,.41,.75,.12,1.5,.25,3,.37,4.5,.03,.34-.04,.66-.22,.94Z"/>
    </g>
    <g id="_3drcCb.tif-2" data-name="3drcCb.tif">
      <path class="cls-11" d="M93.7,39.99c-.27,.23-.56,.34-.88,.37-1.48,.12-2.96,.26-4.44,.36-.67,.05-1.07-.28-1.14-.87-.08-.68,.17-1.04,.87-1.18,1.04-.21,2.1-.22,3.16-.32,.38-.04,.49-.14,.45-.54-.11-1.05-.16-2.11-.22-3.16-.02-.42,.14-.77,.53-.96,.39-.19,.76-.11,1.11,.12,.27,.18,.38,.44,.41,.75,.12,1.5,.25,3,.37,4.5,.03,.34-.04,.66-.22,.94Z"/>
    </g>
    <g id="_3drcCb.tif-3" data-name="3drcCb.tif">
      <path class="cls-11" d="M87.91,59.65c-.35,0-.65-.1-.91-.29-1.2-.87-2.41-1.73-3.61-2.62-.54-.4-.63-.91-.3-1.4,.38-.57,.81-.68,1.43-.33,.93,.52,1.74,1.2,2.6,1.81,.31,.22,.46,.22,.69-.11,.6-.87,1.25-1.7,1.89-2.54,.26-.33,.6-.49,1.03-.38,.42,.11,.65,.41,.76,.81,.09,.31,0,.58-.18,.84-.88,1.22-1.76,2.44-2.64,3.66-.2,.28-.46,.48-.77,.57Z"/>
    </g>
    <g id="_3drcCb.tif-4" data-name="3drcCb.tif">
      <path class="cls-11" d="M73.54,45.07c-.27-.23-.43-.5-.51-.81-.36-1.44-.73-2.88-1.08-4.33-.16-.66,.1-1.1,.67-1.27,.66-.19,1.05,0,1.31,.67,.38,.99,.56,2.04,.83,3.06,.1,.37,.21,.46,.6,.36,1.02-.27,2.05-.5,3.09-.73,.41-.09,.78,.01,1.04,.37,.25,.35,.23,.73,.06,1.11-.13,.3-.37,.45-.68,.52-1.46,.36-2.92,.73-4.38,1.1-.34,.08-.66,.07-.96-.06Z"/>
    </g>
    <g id="_3drcCb.tif-5" data-name="3drcCb.tif">
      <path class="cls-11" d="M80,68.74c-.27,.23-.56,.34-.88,.37-1.48,.12-2.96,.26-4.44,.36-.67,.05-1.07-.28-1.14-.87-.08-.68,.17-1.04,.87-1.18,1.04-.21,2.1-.22,3.16-.32,.38-.04,.49-.14,.45-.54-.11-1.05-.16-2.11-.22-3.16-.02-.42,.14-.77,.53-.96,.39-.19,.76-.11,1.11,.12,.27,.18,.38,.44,.41,.75,.12,1.5,.25,3,.37,4.5,.03,.34-.04,.66-.22,.94Z"/>
    </g>
    <g id="_3drcCb.tif-6" data-name="3drcCb.tif">
      <path class="cls-11" d="M80.88,87.6c.12,.34,.11,.65,.02,.96-.43,1.42-.86,2.85-1.3,4.26-.2,.64-.65,.89-1.23,.74-.66-.18-.9-.55-.78-1.25,.19-1.05,.57-2.04,.87-3.05,.11-.37,.06-.51-.33-.62-1.02-.29-2.02-.63-3.02-.96-.4-.13-.66-.41-.7-.85-.04-.43,.18-.75,.52-.99,.26-.19,.55-.19,.85-.1,1.44,.44,2.88,.88,4.32,1.31,.33,.1,.6,.28,.79,.55Z"/>
    </g>
    <g id="_3drcCb.tif-7" data-name="3drcCb.tif">
      <path class="cls-11" d="M97.27,71.64c-.3-.19-.49-.44-.6-.74-.53-1.39-1.08-2.77-1.59-4.16-.24-.63-.04-1.1,.51-1.34,.63-.27,1.05-.12,1.38,.51,.49,.94,.8,1.96,1.19,2.94,.14,.35,.27,.44,.64,.28,.98-.4,1.98-.75,2.97-1.1,.4-.14,.77-.08,1.07,.24,.29,.32,.32,.7,.2,1.09-.09,.31-.32,.49-.61,.6-1.4,.54-2.81,1.08-4.21,1.62-.32,.12-.65,.15-.96,.05Z"/>
    </g>
  </g>
</svg>