<?xml version="1.0" encoding="UTF-8"?>
<svg id="Layer_2" data-name="Layer 2" xmlns="http://www.w3.org/2000/svg" viewBox="0 0 32.29 33.85">
  <defs>
    <style>
      .cls-1 {
        fill: #fff;
      }

      .cls-2 {
        fill: #bce1f6;
      }

      .cls-3 {
        fill: #a1d6f6;
      }

      .cls-4 {
        fill: #6c97b2;
      }

      .cls-5 {
        fill: #567e94;
      }
    </style>
  </defs>
  <g id="Layer_1-2" data-name="Layer 1">
    <g>
      <path class="cls-1" d="M.97,9.5c-.31-1.36-.55-2.96,.4-3.97,.57-.61,1.44-.82,2.26-1.01,3.32-.76,6.63-1.52,9.95-2.28,1.04-.24,2.1-.48,3.17-.51,1.52-.04,3.02,.34,4.5,.71,3.39,.87,6.78,1.74,10.16,2.6,1.08,9.59-3.3,19.6-11.07,25.32-1.26,.93-2.68,1.78-4.24,1.88-1.71,.11-3.35-.67-4.78-1.61-3.05-2.01-6.08-5.14-7.38-8.63-1.47-3.92-2.04-8.42-2.97-12.5Z"/>
      <g>
        <path class="cls-1" d="M4.94,23.4c2.42,2.25,4.84,4.51,7.25,6.76,1.09,1.02,2.26,2.08,3.72,2.38,1.32,.28,2.71-.11,3.87-.79s2.14-1.63,3.1-2.58c1.09-1.07,2.2-2.16,2.95-3.48,.76-1.33,1.13-2.95,.65-4.4-.72-2.2-3.11-3.37-5.37-3.89-6.03-1.39-12.69,.42-17.2,4.65"/>
        <path class="cls-4" d="M32.27,3.64c0-.38,0-.38-.47-.37-3.31,.1-6.54-.17-9.7-.98-.31-.08-.62-.16-.93-.25-1.64-.47-3.2-1.07-4.62-1.92-.28-.16-.45-.16-.73,0-2.65,1.52-5.63,2.34-8.76,2.8-2.21,.33-4.44,.42-6.68,.35-.23,0-.31,.03-.31,.24,0,1.1,0,2.22,0,3.32h-.09c.07,1.29,.11,2.57,.23,3.85,.17,2.16,.52,4.3,1.1,6.4,.87,3.19,2.21,6.23,4.35,9,.4,.52,.83,1.03,1.28,1.51,2.4,2.61,5.4,4.66,8.94,6.19,.2,.1,.37,.09,.57,0,4.58-1.98,8.22-4.81,10.82-8.54,1.85-2.66,3.05-5.53,3.82-8.52,.71-2.74,1.08-5.5,1.15-8.29,.04-1.59,0-3.19,0-4.79Zm-2.01,5.86c-.07,2.43-.38,4.86-1.01,7.24-.68,2.62-1.72,5.14-3.35,7.46-2.28,3.27-5.46,5.75-9.48,7.48-.17,.07-.32,.08-.49,0-2.92-1.25-5.42-2.92-7.45-5.01-.54-.55-1.04-1.13-1.5-1.73-1.86-2.42-3.04-5.08-3.81-7.87-.51-1.85-.81-3.73-.96-5.62-.09-1.11-.14-2.24-.21-3.35h.09c0-.98,0-1.95,0-2.92,0-.17,.07-.22,.27-.21,1.96,.08,3.91-.02,5.84-.3,2.74-.4,5.35-1.12,7.66-2.45,.25-.14,.39-.14,.64,0,1.38,.84,2.93,1.4,4.56,1.82,.1,.03,.2,.05,.3,.08,2.76,.71,5.6,.94,8.49,.87q.42-.02,.42,.32c0,1.4,.03,2.8,0,4.2Z"/>
        <path class="cls-2" d="M28.7,6.58q0-.3-.37-.29c-2.51,.08-4.99-.13-7.41-.73-.05,0-.1-.03-.15-.04-1.53-.39-3-.91-4.31-1.69-.22-.13-.35-.13-.56,0h0c-2.06,1.18-4.38,1.82-6.82,2.18-1.72,.25-3.46,.32-5.2,.26-.17,0-.24,.03-.24,.19v2.59h-.07c.05,1,.1,1.99,.17,2.99,.14,1.69,.41,3.35,.87,5,.15,.53,.31,1.07,.5,1.59,.66,1.91,1.59,3.73,2.89,5.42,.51,.66,1.06,1.28,1.64,1.85,1.75,1.72,3.87,3.11,6.32,4.16,.17,.07,.29,.06,.45,0,3.57-1.54,6.4-3.74,8.43-6.65,1.45-2.07,2.38-4.31,2.98-6.65,.55-2.13,.84-4.28,.9-6.45,.03-1.24,0-2.49,0-3.74Z"/>
        <path class="cls-3" d="M28.71,10.31c-.06,2.17-.35,4.32-.9,6.45-.6,2.34-1.53,4.58-2.98,6.65-2.03,2.9-4.86,5.11-8.43,6.65-.16,.07-.28,.08-.45,0-2.45-1.06-4.57-2.44-6.32-4.16,4.8-3.5,8.15-9.55,9.98-15.07,.57-1.72,1.01-3.48,1.3-5.28,2.42,.59,4.9,.8,7.41,.73q.37,0,.37,.29c0,1.24,.04,2.49,0,3.74Z"/>
        <path class="cls-5" d="M32.27,8.43c-.08,2.79-.45,5.56-1.15,8.29-.77,2.99-1.97,5.86-3.82,8.52-2.61,3.73-6.24,6.56-10.82,8.54-.2,.09-.37,.1-.57,0-3.54-1.52-6.54-3.58-8.94-6.19,.48-.34,1.02-.63,1.53-.93,2.02,2.09,4.52,3.76,7.45,5.01,.17,.08,.31,.07,.49,0,4.02-1.73,7.19-4.21,9.48-7.48,1.63-2.33,2.67-4.84,3.35-7.46,.62-2.39,.94-4.81,1.01-7.24,.03-1.4,0-2.8,0-4.2q0-.34-.42-.32c-2.89,.08-5.72-.16-8.49-.87-.1-.03-.2-.05-.3-.08,.03-.59,.07-1.32,.11-1.99,.31,.09,.61,.17,.93,.25,3.16,.8,6.4,1.08,9.7,.98,.46,0,.47,0,.47,.37,0,1.6,.04,3.2,0,4.79Z"/>
      </g>
    </g>
    <g>
      <rect class="cls-1" x="20.69" y="9.38" width=".5" height="9.36" transform="translate(-2.9 5.83) rotate(-14.84)"/>
      <polygon class="cls-1" points="12.96 20.49 12.59 20.15 16.69 15.73 9.7 14.94 9.75 14.45 17.73 15.34 12.96 20.49"/>
      <polygon class="cls-1" points="12.55 20.44 9.39 14.6 19.07 8.82 19.33 9.25 10.06 14.79 12.99 20.2 12.55 20.44"/>
      <rect class="cls-1" x="14.99" y="12.04" width="6.97" height=".5" transform="translate(.32 25.04) rotate(-68.73)"/>
      <circle class="cls-1" cx="19.74" cy="9.04" r="1.52"/>
      <circle class="cls-1" cx="22.14" cy="18.59" r="1.52"/>
      <circle class="cls-1" cx="17.21" cy="15.54" r="1.52"/>
      <circle class="cls-1" cx="17.21" cy="22.79" r="1.52"/>
      <circle class="cls-1" cx="9.72" cy="14.7" r="1.52"/>
      <circle class="cls-1" cx="12.77" cy="20.32" r="1.52"/>
      <rect class="cls-1" x="16.96" y="15.54" width=".5" height="7.25"/>
    </g>
  </g>
</svg>