<?xml version="1.0" encoding="UTF-8"?>
<svg id="Layer_2" data-name="Layer 2" xmlns="http://www.w3.org/2000/svg" viewBox="0 0 110.39 103.57">
  <defs>
    <style>
      .cls-1 {
        fill: #fcdbdb;
      }

      .cls-2 {
        fill: #e3f6fc;
      }

      .cls-3 {
        fill: #fff;
      }

      .cls-4 {
        fill: #fcc742;
      }

      .cls-5 {
        fill: #bce1f6;
      }

      .cls-6 {
        fill: #c4daa2;
      }

      .cls-7 {
        fill: #d9e8bf;
      }

      .cls-8 {
        fill: #e35658;
      }

      .cls-9 {
        fill: #a1d6f6;
      }

      .cls-10 {
        fill: #6c97b2;
      }

      .cls-11 {
        fill: #567e94;
      }

      .cls-12 {
        fill: #515051;
      }
    </style>
  </defs>
  <g id="Layer_1-2" data-name="Layer 1">
    <g>
      <path class="cls-1" d="M68.23,98.21l-2-.06,.06-1.84,2,.06-.06,1.84Zm.15-4.83l-2-.06,.09-3,2,.06-.09,3Zm.18-6l-2-.06,.09-3,2,.06-.09,3Zm.18-6l-2-.06,.09-3,2,.06-.09,3Zm.18-6l-2-.06,.09-3,2,.06-.09,3Zm.18-6l-2-.06,.09-3,2,.06-.09,3Zm.18-6l-2-.06,.09-3,2,.06-.09,3Z"/>
      <polygon class="cls-4" points="67.85 99.22 66.61 97.13 90.16 83.11 69.04 59.19 70.86 57.58 93.92 83.7 67.85 99.22"/>
      <path class="cls-1" d="M46.46,79.25h-2v-3h2v3Zm0-6h-2v-3h2v3Zm0-6h-2v-3h2v3Zm0-6h-2v-3h2v3Zm0-6h-2v-3h2v3Zm0-6h-2v-3h2v3Zm-2-6h0s2,0,2,0h-2Z"/>
      <path class="cls-1" d="M66.57,98.93l-2.26-1.97,1.31-1.51,2.26,1.97-1.31,1.51Zm-4.53-3.94l-2.26-1.97,1.31-1.51,2.26,1.97-1.31,1.51Zm-4.53-3.94l-2.26-1.97,1.31-1.51,2.26,1.97-1.31,1.51Zm-4.53-3.94l-2.26-1.97,1.31-1.51,2.26,1.97-1.31,1.51Zm-4.53-3.94l-2.26-1.97,1.31-1.51,2.26,1.97-1.31,1.51Z"/>
      <rect class="cls-4" x="86.84" y="28.38" width="2.43" height="50.32" transform="translate(-5.76 10.89) rotate(-6.85)"/>
      <polygon class="cls-4" points="96.42 83.18 94.07 82.53 102.79 50.94 79.22 25.61 62.97 14.06 64.38 12.07 80.91 23.86 105.49 50.27 96.42 83.18"/>
      <rect class="cls-6" x="5.49" y="78.01" width="29.31" height="2.43" transform="translate(-61.38 85.2) rotate(-79.92)"/>
      <rect class="cls-4" x="60.02" y="40.51" width="31.97" height="2.43" transform="translate(5.95 92.83) rotate(-64.87)"/>
      <polygon class="cls-7" points="23.61 65.63 21.83 63.97 42.2 42 7.44 38.09 7.71 35.67 47.26 40.12 23.61 65.63"/>
      <polygon class="cls-7" points="21.65 65.38 5.95 36.44 54.02 7.74 55.26 9.83 9.2 37.33 23.79 64.22 21.65 65.38"/>
      <path class="cls-8" d="M45.67,41.42l-1.86-.73,1.09-2.79,1.86,.73-1.09,2.79Zm2.18-5.59l-1.86-.73,1.09-2.79,1.86,.73-1.09,2.79Zm2.18-5.59l-1.86-.73,1.09-2.8,1.86,.73-1.09,2.8Zm2.18-5.59l-1.86-.73,1.09-2.79,1.86,.73-1.09,2.79Zm2.18-5.59l-1.86-.73,1.09-2.79,1.86,.73-1.09,2.79Zm2.18-5.59l-1.86-.73,1.09-2.8,1.86,.73-1.09,2.8Z"/>
      <path class="cls-8" d="M67.87,55.02l-.77-2.9,1.93-.51,.77,2.9-1.93,.51Zm-1.54-5.8l-.77-2.9,1.93-.51,.77,2.9-1.93,.51Zm-1.54-5.8l-.77-2.9,1.93-.51,.77,2.9-1.93,.51Zm-1.54-5.8l-.77-2.9,1.93-.51,.77,2.9-1.93,.51Zm-1.54-5.8l-.77-2.9,1.93-.51,.77,2.9-1.93,.51Zm-1.54-5.8l-.77-2.9,1.93-.51,.77,2.9-1.93,.51Zm-1.54-5.8l-.77-2.9,1.93-.51,.77,2.9-1.93,.51Zm-1.54-5.8l-.77-2.9,1.93-.51,.77,2.9-1.93,.51Z"/>
      <g>
        <circle class="cls-12" cx="57.31" cy="8.79" r="7.57"/>
        <path class="cls-3" d="M57.31,17.58c-4.85,0-8.79-3.94-8.79-8.79S52.46,0,57.31,0s8.79,3.94,8.79,8.79-3.94,8.79-8.79,8.79Zm0-15.14c-3.5,0-6.36,2.85-6.36,6.36s2.85,6.36,6.36,6.36,6.36-2.85,6.36-6.36-2.85-6.36-6.36-6.36Z"/>
      </g>
      <circle class="cls-4" cx="82.79" cy="27.26" r="7.57"/>
      <circle class="cls-1" cx="69.22" cy="56.21" r="7.57"/>
      <circle class="cls-1" cx="44.73" cy="41.06" r="7.57"/>
      <circle class="cls-1" cx="44.73" cy="77.06" r="7.57"/>
      <circle class="cls-7" cx="7.57" cy="36.88" r="7.57"/>
      <circle class="cls-7" cx="22.72" cy="64.8" r="7.57"/>
      <circle class="cls-4" cx="102.82" cy="50.6" r="7.57"/>
      <circle class="cls-4" cx="92.07" cy="82.86" r="7.57"/>
      <circle class="cls-1" cx="67.64" cy="96" r="7.57"/>
      <circle class="cls-7" cx="17.58" cy="92.72" r="7.57"/>
      <polygon class="cls-4" points="96.42 83.18 94.07 82.53 102.79 50.94 79.13 25.52 80.91 23.86 105.49 50.27 96.42 83.18"/>
      <g>
        <path class="cls-3" d="M47.6,29.14c.39-.15,.79-.35,1.21-.32,.3,.02,.58,.15,.85,.27,1.16,.48,2.43,.67,3.67,.54,.07,1.52-.08,3.07-.62,4.5-.54,1.42-1.48,2.72-2.77,3.53-.35,.22-.73,.4-1.14,.44-.83,.07-1.58-.47-2.15-1.06-1.03-1.06-1.76-2.39-2.15-3.82-.19-.71-.3-1.45-.31-2.19,0-.53-.12-1.32,.56-1.41,.46-.07,.94-.02,1.4-.1,.49-.08,.97-.21,1.44-.39Z"/>
        <path class="cls-10" d="M53.65,29.45c0-.11,0-.11-.14-.11-1.01,.03-1.99-.05-2.95-.3-.1-.02-.19-.05-.28-.07-.5-.14-.97-.32-1.4-.59-.09-.05-.14-.05-.22,0-.81,.46-1.71,.71-2.66,.85-.67,.1-1.35,.13-2.03,.11-.07,0-.09,.01-.09,.07,0,.34,0,.68,0,1.01h-.03c.02,.39,.03,.78,.07,1.17,.05,.66,.16,1.31,.34,1.95,.27,.97,.67,1.89,1.32,2.74,.12,.16,.25,.31,.39,.46,.73,.79,1.64,1.42,2.72,1.88,.06,.03,.11,.03,.17,0,1.39-.6,2.5-1.46,3.29-2.6,.56-.81,.93-1.68,1.16-2.59,.22-.83,.33-1.67,.35-2.52,.01-.48,0-.97,0-1.46Zm-.61,1.78c-.02,.74-.12,1.48-.31,2.2-.21,.8-.52,1.56-1.02,2.27-.69,.99-1.66,1.75-2.88,2.27-.05,.02-.1,.02-.15,0-.89-.38-1.65-.89-2.26-1.52-.16-.17-.32-.34-.46-.53-.57-.74-.93-1.55-1.16-2.39-.15-.56-.25-1.13-.29-1.71-.03-.34-.04-.68-.06-1.02h.03c0-.3,0-.59,0-.89,0-.05,.02-.07,.08-.06,.6,.02,1.19,0,1.77-.09,.83-.12,1.63-.34,2.33-.74,.07-.04,.12-.04,.19,0,.42,.26,.89,.43,1.39,.55,.03,0,.06,.02,.09,.02,.84,.22,1.7,.29,2.58,.26q.13,0,.13,.1c0,.43,.01,.85,0,1.28Z"/>
        <path class="cls-5" d="M52.56,30.34q0-.09-.11-.09c-.76,.02-1.52-.04-2.25-.22-.02,0-.03,0-.05-.01-.47-.12-.91-.28-1.31-.51-.07-.04-.11-.04-.17,0h0c-.63,.36-1.33,.55-2.07,.66-.52,.08-1.05,.1-1.58,.08-.05,0-.07,.01-.07,.06v.79h-.02c.02,.3,.03,.61,.05,.91,.04,.51,.13,1.02,.26,1.52,.05,.16,.1,.32,.15,.48,.2,.58,.48,1.13,.88,1.65,.15,.2,.32,.39,.5,.56,.53,.52,1.18,.94,1.92,1.27,.05,.02,.09,.02,.14,0,1.09-.47,1.94-1.14,2.56-2.02,.44-.63,.72-1.31,.91-2.02,.17-.65,.26-1.3,.27-1.96,0-.38,0-.76,0-1.14Z"/>
        <path class="cls-9" d="M52.56,31.48c-.02,.66-.11,1.31-.27,1.96-.18,.71-.47,1.39-.91,2.02-.62,.88-1.48,1.55-2.56,2.02-.05,.02-.09,.02-.14,0-.74-.32-1.39-.74-1.92-1.27,1.46-1.06,2.48-2.9,3.03-4.58,.17-.52,.31-1.06,.4-1.6,.74,.18,1.49,.24,2.25,.22q.11,0,.11,.09c0,.38,.01,.76,0,1.14Z"/>
        <path class="cls-11" d="M53.65,30.91c-.02,.85-.14,1.69-.35,2.52-.23,.91-.6,1.78-1.16,2.59-.79,1.13-1.9,1.99-3.29,2.6-.06,.03-.11,.03-.17,0-1.08-.46-1.99-1.09-2.72-1.88,.15-.1,.31-.19,.47-.28,.61,.64,1.38,1.14,2.26,1.52,.05,.02,.1,.02,.15,0,1.22-.53,2.19-1.28,2.88-2.27,.49-.71,.81-1.47,1.02-2.27,.19-.73,.28-1.46,.31-2.2,.01-.43,0-.85,0-1.28q0-.1-.13-.1c-.88,.02-1.74-.05-2.58-.26-.03,0-.06-.02-.09-.02,.01-.18,.02-.4,.03-.6,.09,.03,.19,.05,.28,.07,.96,.24,1.94,.33,2.95,.3,.14,0,.14,0,.14,.11,0,.49,.01,.97,0,1.46Z"/>
      </g>
      <g>
        <path class="cls-3" d="M63.78,33.96c.39-.15,.79-.35,1.21-.32,.3,.02,.58,.15,.85,.27,1.16,.48,2.43,.67,3.67,.54,.07,1.52-.08,3.07-.62,4.5s-1.48,2.72-2.77,3.53c-.35,.22-.73,.4-1.14,.44-.83,.07-1.58-.47-2.15-1.06-1.03-1.06-1.76-2.39-2.15-3.82-.19-.71-.3-1.45-.31-2.19,0-.53-.12-1.32,.56-1.41,.46-.07,.94-.02,1.4-.1,.49-.08,.97-.21,1.44-.39Z"/>
        <path class="cls-10" d="M69.83,34.27c0-.11,0-.11-.14-.11-1.01,.03-1.99-.05-2.95-.3-.1-.02-.19-.05-.28-.07-.5-.14-.97-.32-1.4-.59-.09-.05-.14-.05-.22,0-.81,.46-1.71,.71-2.66,.85-.67,.1-1.35,.13-2.03,.11-.07,0-.09,.01-.09,.07,0,.34,0,.68,0,1.01h-.03c.02,.39,.03,.78,.07,1.17,.05,.66,.16,1.31,.34,1.95,.27,.97,.67,1.89,1.32,2.74,.12,.16,.25,.31,.39,.46,.73,.79,1.64,1.42,2.72,1.88,.06,.03,.11,.03,.17,0,1.39-.6,2.5-1.46,3.29-2.6,.56-.81,.93-1.68,1.16-2.59,.22-.83,.33-1.67,.35-2.52,.01-.48,0-.97,0-1.46Zm-.61,1.78c-.02,.74-.12,1.48-.31,2.2-.21,.8-.52,1.56-1.02,2.27-.69,.99-1.66,1.75-2.88,2.27-.05,.02-.1,.02-.15,0-.89-.38-1.65-.89-2.26-1.52-.16-.17-.32-.34-.46-.53-.57-.74-.93-1.55-1.16-2.39-.15-.56-.25-1.13-.29-1.71-.03-.34-.04-.68-.06-1.02h.03c0-.3,0-.59,0-.89,0-.05,.02-.07,.08-.06,.6,.02,1.19,0,1.77-.09,.83-.12,1.63-.34,2.33-.74,.07-.04,.12-.04,.19,0,.42,.26,.89,.43,1.39,.55,.03,0,.06,.02,.09,.02,.84,.22,1.7,.29,2.58,.26q.13,0,.13,.1c0,.43,.01,.85,0,1.28Z"/>
        <path class="cls-5" d="M68.75,35.16q0-.09-.11-.09c-.76,.02-1.52-.04-2.25-.22-.02,0-.03,0-.05-.01-.47-.12-.91-.28-1.31-.51-.07-.04-.11-.04-.17,0h0c-.63,.36-1.33,.55-2.07,.66-.52,.08-1.05,.1-1.58,.08-.05,0-.07,.01-.07,.06v.79h-.02c.02,.3,.03,.61,.05,.91,.04,.51,.13,1.02,.26,1.52,.05,.16,.1,.32,.15,.48,.2,.58,.48,1.13,.88,1.65,.15,.2,.32,.39,.5,.56,.53,.52,1.18,.94,1.92,1.27,.05,.02,.09,.02,.14,0,1.09-.47,1.94-1.14,2.56-2.02,.44-.63,.72-1.31,.91-2.02,.17-.65,.26-1.3,.27-1.96,0-.38,0-.76,0-1.14Z"/>
        <path class="cls-9" d="M68.75,36.3c-.02,.66-.11,1.31-.27,1.96-.18,.71-.47,1.39-.91,2.02-.62,.88-1.48,1.55-2.56,2.02-.05,.02-.09,.02-.14,0-.74-.32-1.39-.74-1.92-1.27,1.46-1.06,2.48-2.9,3.03-4.58,.17-.52,.31-1.06,.4-1.6,.74,.18,1.49,.24,2.25,.22q.11,0,.11,.09c0,.38,.01,.76,0,1.14Z"/>
        <path class="cls-11" d="M69.83,35.72c-.02,.85-.14,1.69-.35,2.52-.23,.91-.6,1.78-1.16,2.59-.79,1.13-1.9,1.99-3.29,2.6-.06,.03-.11,.03-.17,0-1.08-.46-1.99-1.09-2.72-1.88,.15-.1,.31-.19,.47-.28,.61,.64,1.38,1.14,2.26,1.52,.05,.02,.1,.02,.15,0,1.22-.53,2.19-1.28,2.88-2.27,.49-.71,.81-1.47,1.02-2.27,.19-.73,.28-1.46,.31-2.2,.01-.43,0-.85,0-1.28q0-.1-.13-.1c-.88,.02-1.74-.05-2.58-.26-.03,0-.06-.02-.09-.02,.01-.18,.02-.4,.03-.6,.09,.03,.19,.05,.28,.07,.96,.24,1.94,.33,2.95,.3,.14,0,.14,0,.14,.11,0,.49,.01,.97,0,1.46Z"/>
      </g>
      <g>
        <path class="cls-3" d="M65.76,71.51c.39-.15,.79-.35,1.21-.32,.3,.02,.58,.15,.85,.27,1.16,.48,2.43,.67,3.67,.54,.07,1.52-.08,3.07-.62,4.5-.54,1.42-1.48,2.72-2.77,3.53-.35,.22-.73,.4-1.14,.44-.83,.07-1.58-.47-2.15-1.06-1.03-1.06-1.76-2.39-2.15-3.82-.19-.71-.3-1.45-.31-2.19,0-.53-.12-1.32,.56-1.41,.46-.07,.94-.02,1.4-.1,.49-.08,.97-.21,1.44-.39Z"/>
        <path class="cls-5" d="M71.8,71.82c0-.11,0-.11-.14-.11-1.01,.03-1.99-.05-2.95-.3-.1-.02-.19-.05-.28-.07-.5-.14-.97-.32-1.4-.59-.09-.05-.14-.05-.22,0-.81,.46-1.71,.71-2.66,.85-.67,.1-1.35,.13-2.03,.11-.07,0-.09,.01-.09,.07,0,.34,0,.68,0,1.01h-.03c.02,.39,.03,.78,.07,1.17,.05,.66,.16,1.31,.34,1.95,.27,.97,.67,1.89,1.32,2.74,.12,.16,.25,.31,.39,.46,.73,.79,1.64,1.42,2.72,1.88,.06,.03,.11,.03,.17,0,1.39-.6,2.5-1.46,3.29-2.6,.56-.81,.93-1.68,1.16-2.59,.22-.83,.33-1.67,.35-2.52,.01-.48,0-.97,0-1.46Zm-.61,1.78c-.02,.74-.12,1.48-.31,2.2-.21,.8-.52,1.56-1.02,2.27-.69,.99-1.66,1.75-2.88,2.27-.05,.02-.1,.02-.15,0-.89-.38-1.65-.89-2.26-1.52-.16-.17-.32-.34-.46-.53-.57-.74-.93-1.55-1.16-2.39-.15-.56-.25-1.13-.29-1.71-.03-.34-.04-.68-.06-1.02h.03c0-.3,0-.59,0-.89,0-.05,.02-.07,.08-.06,.6,.02,1.19,0,1.77-.09,.83-.12,1.63-.34,2.33-.74,.07-.04,.12-.04,.19,0,.42,.26,.89,.43,1.39,.55,.03,0,.06,.02,.09,.02,.84,.22,1.7,.29,2.58,.26q.13,0,.13,.1c0,.43,.01,.85,0,1.28Z"/>
        <path class="cls-2" d="M70.72,72.71q0-.09-.11-.09c-.76,.02-1.52-.04-2.25-.22-.02,0-.03,0-.05-.01-.47-.12-.91-.28-1.31-.51-.07-.04-.11-.04-.17,0h0c-.63,.36-1.33,.55-2.07,.66-.52,.08-1.05,.1-1.58,.08-.05,0-.07,.01-.07,.06v.79h-.02c.02,.3,.03,.61,.05,.91,.04,.51,.13,1.02,.26,1.52,.05,.16,.1,.32,.15,.48,.2,.58,.48,1.13,.88,1.65,.15,.2,.32,.39,.5,.56,.53,.52,1.18,.94,1.92,1.27,.05,.02,.09,.02,.14,0,1.09-.47,1.94-1.14,2.56-2.02,.44-.63,.72-1.31,.91-2.02,.17-.65,.26-1.3,.27-1.96,0-.38,0-.76,0-1.14Z"/>
      </g>
      <g>
        <path class="cls-3" d="M43.3,55.42c.39-.15,.79-.35,1.21-.32,.3,.02,.58,.15,.85,.27,1.16,.48,2.43,.67,3.67,.54,.07,1.52-.08,3.07-.62,4.5s-1.48,2.72-2.77,3.53c-.35,.22-.73,.4-1.14,.44-.83,.07-1.58-.47-2.15-1.06-1.03-1.06-1.76-2.39-2.15-3.82-.19-.71-.3-1.45-.31-2.19,0-.53-.12-1.32,.56-1.41,.46-.07,.94-.02,1.4-.1,.49-.08,.97-.21,1.44-.39Z"/>
        <path class="cls-5" d="M49.35,55.73c0-.11,0-.11-.14-.11-1.01,.03-1.99-.05-2.95-.3-.1-.02-.19-.05-.28-.07-.5-.14-.97-.32-1.4-.59-.09-.05-.14-.05-.22,0-.81,.46-1.71,.71-2.66,.85-.67,.1-1.35,.13-2.03,.11-.07,0-.09,.01-.09,.07,0,.34,0,.68,0,1.01h-.03c.02,.39,.03,.78,.07,1.17,.05,.66,.16,1.31,.34,1.95,.27,.97,.67,1.89,1.32,2.74,.12,.16,.25,.31,.39,.46,.73,.79,1.64,1.42,2.72,1.88,.06,.03,.11,.03,.17,0,1.39-.6,2.5-1.46,3.29-2.6,.56-.81,.93-1.68,1.16-2.59,.22-.83,.33-1.67,.35-2.52,.01-.48,0-.97,0-1.46Zm-.61,1.78c-.02,.74-.12,1.48-.31,2.2-.21,.8-.52,1.56-1.02,2.27-.69,.99-1.66,1.75-2.88,2.27-.05,.02-.1,.02-.15,0-.89-.38-1.65-.89-2.26-1.52-.16-.17-.32-.34-.46-.53-.57-.74-.93-1.55-1.16-2.39-.15-.56-.25-1.13-.29-1.71-.03-.34-.04-.68-.06-1.02h.03c0-.3,0-.59,0-.89,0-.05,.02-.07,.08-.06,.6,.02,1.19,0,1.77-.09,.83-.12,1.63-.34,2.33-.74,.07-.04,.12-.04,.19,0,.42,.26,.89,.43,1.39,.55,.03,0,.06,.02,.09,.02,.84,.22,1.7,.29,2.58,.26q.13,0,.13,.1c0,.43,.01,.85,0,1.28Z"/>
        <path class="cls-2" d="M48.26,56.62q0-.09-.11-.09c-.76,.02-1.52-.04-2.25-.22-.02,0-.03,0-.05-.01-.47-.12-.91-.28-1.31-.51-.07-.04-.11-.04-.17,0h0c-.63,.36-1.33,.55-2.07,.66-.52,.08-1.05,.1-1.58,.08-.05,0-.07,.01-.07,.06v.79h-.02c.02,.3,.03,.61,.05,.91,.04,.51,.13,1.02,.26,1.52,.05,.16,.1,.32,.15,.48,.2,.58,.48,1.13,.88,1.65,.15,.2,.32,.39,.5,.56,.53,.52,1.18,.94,1.92,1.27,.05,.02,.09,.02,.14,0,1.09-.47,1.94-1.14,2.56-2.02,.44-.63,.72-1.31,.91-2.02,.17-.65,.26-1.3,.27-1.96,0-.38,0-.76,0-1.14Z"/>
      </g>
    </g>
    <g id="_3drcCb.tif" data-name="3drcCb.tif">
      <path class="cls-12" d="M71.14,19.49c-.27,.23-.56,.34-.88,.37-1.47,.12-2.94,.25-4.41,.36-.67,.05-1.06-.27-1.13-.86-.08-.67,.17-1.03,.87-1.17,1.03-.21,2.09-.22,3.13-.32,.38-.03,.49-.13,.45-.53-.11-1.04-.16-2.09-.22-3.14-.02-.42,.14-.76,.53-.96,.39-.19,.75-.11,1.1,.12,.27,.18,.38,.44,.4,.75,.12,1.49,.25,2.97,.37,4.46,.03,.34-.04,.66-.21,.93Z"/>
    </g>
    <g id="_3drcCb.tif-2" data-name="3drcCb.tif">
      <path class="cls-12" d="M95.24,38.33c-.27,.23-.56,.35-.89,.37-1.49,.13-2.99,.26-4.49,.37-.68,.05-1.08-.28-1.15-.88-.08-.68,.18-1.05,.88-1.19,1.05-.21,2.12-.22,3.19-.32,.38-.04,.5-.14,.46-.54-.11-1.06-.16-2.13-.22-3.19-.02-.42,.14-.77,.54-.97,.39-.19,.77-.11,1.12,.12,.27,.18,.38,.45,.41,.76,.12,1.51,.25,3.03,.38,4.54,.03,.35-.04,.67-.22,.94Z"/>
    </g>
    <g id="_3drcCb.tif-3" data-name="3drcCb.tif">
      <path class="cls-12" d="M81.03,69.24c-.27,.23-.56,.35-.89,.37-1.49,.13-2.99,.26-4.49,.37-.68,.05-1.08-.28-1.15-.88-.08-.68,.18-1.05,.88-1.19,1.05-.21,2.12-.22,3.19-.32,.38-.04,.5-.14,.46-.54-.11-1.06-.16-2.13-.22-3.19-.02-.42,.14-.77,.54-.97,.39-.19,.77-.11,1.12,.12,.27,.18,.38,.45,.41,.76,.12,1.51,.25,3.03,.38,4.54,.03,.35-.04,.67-.22,.94Z"/>
    </g>
    <g id="_3drcCb.tif-4" data-name="3drcCb.tif">
      <path class="cls-12" d="M89.18,61.24c-.36-.02-.65-.14-.9-.34-1.17-.94-2.35-1.87-3.51-2.82-.53-.43-.59-.95-.23-1.43,.41-.55,.85-.64,1.46-.26,.91,.57,1.7,1.3,2.53,1.96,.3,.24,.46,.24,.71-.08,.65-.84,1.35-1.66,2.04-2.47,.27-.32,.63-.47,1.06-.33,.42,.13,.63,.44,.73,.85,.08,.32-.03,.59-.23,.83-.95,1.18-1.9,2.37-2.85,3.55-.22,.27-.49,.46-.81,.53Z"/>
    </g>
    <g id="_3drcCb.tif-5" data-name="3drcCb.tif">
      <path class="cls-12" d="M98.97,67.43c-.33-.15-.55-.37-.71-.65-.75-1.3-1.5-2.6-2.23-3.91-.33-.6-.2-1.1,.31-1.42,.59-.36,1.03-.28,1.45,.29,.64,.86,1.1,1.83,1.64,2.75,.19,.33,.33,.39,.69,.18,.92-.55,1.86-1.05,2.8-1.55,.37-.2,.76-.2,1.11,.08,.34,.27,.43,.65,.37,1.06-.05,.32-.24,.54-.52,.69-1.32,.75-2.64,1.51-3.95,2.26-.3,.17-.62,.25-.95,.2Z"/>
    </g>
    <g id="_3drcCb.tif-6" data-name="3drcCb.tif">
      <path class="cls-12" d="M74.86,41.99c-.28-.23-.44-.5-.52-.81-.39-1.45-.78-2.9-1.15-4.35-.17-.66,.08-1.11,.66-1.29,.66-.2,1.06-.01,1.33,.66,.39,1,.59,2.05,.88,3.08,.1,.37,.22,.47,.61,.35,1.03-.29,2.07-.53,3.1-.78,.41-.1,.79,0,1.05,.36,.26,.35,.25,.73,.08,1.12-.13,.3-.37,.46-.68,.54-1.47,.39-2.93,.78-4.4,1.17-.34,.09-.67,.08-.97-.05Z"/>
    </g>
  </g>
</svg>